<svg width="278" height="215" viewBox="0 0 278 215" fill="none" xmlns="http://www.w3.org/2000/svg">
<g clip-path="url(#clip0_18_1349)">
<path opacity="0.5" d="M138.914 245.633C212.753 245.633 272.612 210.827 272.612 167.891C272.612 124.955 212.753 90.1485 138.914 90.1485C65.0743 90.1485 5.21558 124.955 5.21558 167.891C5.21558 210.827 65.0743 245.633 138.914 245.633Z" fill="#6B7781"/>
<path d="M138.914 249.644C212.753 249.644 272.612 214.837 272.612 171.902C272.612 128.966 212.753 94.1594 138.914 94.1594C65.0743 94.1594 5.21558 128.966 5.21558 171.902C5.21558 214.837 65.0743 249.644 138.914 249.644Z" fill="#F4F6F7"/>
<path d="M272.257 176.306C272.257 188.181 267.689 199.388 259.498 209.455C252.173 218.46 241.974 226.522 229.608 233.206C221.141 237.807 211.65 241.74 201.332 244.925C196.292 246.498 191.054 247.874 185.619 249.054C183.138 249.604 180.658 250.076 178.137 250.548C174.475 251.217 170.773 251.767 166.992 252.239C163.724 252.672 160.416 252.986 157.029 253.261C150.964 253.733 144.781 254.009 138.481 254.009C132.731 254.009 127.099 253.812 121.547 253.379C55.7413 248.582 4.82178 215.904 4.82178 176.306C4.82178 158.649 14.9427 142.409 31.9552 129.354C38.3743 124.438 45.7385 119.995 53.9298 116.102C59.4825 113.467 65.429 111.068 71.6905 108.945C72.0844 108.827 72.5175 108.67 72.9113 108.552C74.8016 107.922 76.7313 107.333 78.661 106.782C84.4106 105.091 90.3571 103.675 96.5399 102.496C106.74 100.53 117.451 99.2712 128.557 98.7994C131.865 98.6421 135.173 98.6027 138.559 98.6027C159.707 98.6027 179.712 101.473 197.513 106.546C241.777 119.169 272.257 145.673 272.257 176.306Z" fill="#18304D"/>
<path d="M257.411 140.797C232.168 132.067 202.986 127.113 171.876 127.113C97.4063 127.113 33.8849 155.661 9.03553 195.85C6.27887 189.597 4.82178 183.109 4.82178 176.424C4.82178 158.768 14.9427 142.527 31.9552 129.472C38.3743 124.557 45.7385 120.113 53.9298 116.22C59.4825 113.585 65.429 111.187 71.6905 109.063C72.0844 108.945 72.5175 108.788 72.9113 108.67C74.8016 108.041 76.7313 107.451 78.661 106.9C84.4106 105.209 90.3571 103.794 96.5399 102.614C106.74 100.648 117.451 99.3896 128.557 98.9177C131.865 98.7604 135.173 98.7211 138.559 98.7211C159.707 98.7211 179.712 101.592 197.512 106.664C223.228 113.979 244.297 126.012 257.411 140.797Z" fill="#262A31" fill-opacity="0.5"/>
<path d="M256.466 212.051H22.1494V250.588H256.466V212.051Z" fill="#18304D"/>
<path d="M89.0967 147.875C67.9492 147.875 50.7397 165.059 50.7397 186.176C50.7397 192.192 52.1968 198.248 54.9535 203.596C55.7411 205.13 57.3164 206.113 59.0491 206.113H119.184C120.917 206.113 122.492 205.169 123.279 203.596C126.036 198.248 127.493 192.192 127.493 186.176C127.493 165.059 110.244 147.875 89.0967 147.875Z" fill="#18304D"/>
<path opacity="0.25" d="M75.2741 199.978C66.7678 199.978 58.7341 197.933 51.6062 194.316C52.3151 197.54 53.4177 200.686 54.9142 203.596C55.7018 205.13 57.2771 206.113 59.0098 206.113H119.144C120.877 206.113 122.452 205.169 123.24 203.596C125.997 198.248 127.454 192.192 127.454 186.176C127.454 179.845 125.879 173.867 123.161 168.598C115.167 187.08 96.7367 199.978 75.2741 199.978Z" fill="#1791FE"/>
<path d="M119.184 209.18H59.0492C56.135 209.18 53.5359 207.568 52.2363 205.012C49.2828 199.231 47.7075 192.703 47.7075 186.215C47.7075 163.408 66.2953 144.847 89.1362 144.847C111.977 144.847 130.565 163.408 130.565 186.215C130.565 192.743 128.99 199.231 126.036 205.012C124.697 207.607 122.059 209.18 119.184 209.18ZM89.0968 150.942C69.6427 150.942 53.8116 166.75 53.8116 186.176C53.8116 191.72 55.1505 197.265 57.6709 202.18C57.9466 202.692 58.4585 203.006 59.0492 203.006H119.184C119.775 203.006 120.287 202.692 120.562 202.18C123.083 197.226 124.422 191.72 124.422 186.176C124.422 166.75 108.59 150.942 89.0968 150.942Z" fill="#D5D9DC"/>
<path opacity="0.5" d="M89.0967 147.875C67.9492 147.875 50.7397 165.059 50.7397 186.176C50.7397 192.192 52.1968 198.248 54.9535 203.596C55.7411 205.13 57.3164 206.113 59.0491 206.113H119.184C120.917 206.113 122.492 205.169 123.279 203.596C126.036 198.248 127.493 192.192 127.493 186.176C127.493 165.059 110.244 147.875 89.0967 147.875ZM120.562 202.22C120.286 202.731 119.774 203.046 119.184 203.046H59.0491C58.4584 203.046 57.9465 202.731 57.6708 202.22C55.1504 197.304 53.8115 191.76 53.8115 186.215C53.8115 166.789 69.6426 150.981 89.0967 150.981C108.551 150.981 124.382 166.789 124.382 186.215C124.421 191.76 123.082 197.304 120.562 202.22Z" fill="#6B7781"/>
<path opacity="0.5" d="M127.414 184.013C127.414 183.777 127.375 183.58 127.375 183.384C127.336 182.873 127.296 182.361 127.218 181.85C127.178 181.614 127.178 181.378 127.139 181.182C127.06 180.67 126.981 180.159 126.902 179.609C126.863 179.412 126.824 179.215 126.784 179.058C126.666 178.429 126.548 177.839 126.391 177.21C126.391 177.131 126.351 177.053 126.351 176.974C125.8 174.772 125.052 172.688 124.185 170.643V170.604C123.87 169.935 123.555 169.267 123.24 168.598C122.728 169.817 122.137 170.997 121.547 172.137C123.437 176.463 124.5 181.182 124.5 186.176C124.5 191.72 123.161 197.265 120.641 202.18C120.365 202.691 119.853 203.006 119.263 203.006H59.0492C58.4585 203.006 57.9465 202.691 57.6709 202.18C56.647 200.175 55.82 198.091 55.1899 195.928C53.9691 195.417 52.7876 194.905 51.6062 194.276C51.7637 195.063 51.9606 195.849 52.1969 196.636V196.675C52.3938 197.422 52.6301 198.13 52.9058 198.877C52.9452 198.956 52.9452 198.995 52.9845 199.074C53.2208 199.742 53.4965 200.371 53.7328 201.04C53.7721 201.158 53.8115 201.276 53.8903 201.394C54.2053 202.141 54.5598 202.849 54.9142 203.557C55.7018 205.09 57.2771 206.073 59.0098 206.073H119.144C120.877 206.073 122.452 205.13 123.24 203.557C125.997 198.209 127.454 192.153 127.454 186.136C127.493 185.468 127.454 184.721 127.414 184.013Z" fill="#6D6D80"/>
<path d="M61.4121 186.215C61.4121 187.906 62.8692 189.361 64.5626 189.361C66.256 189.361 67.7131 187.906 67.7131 186.215C67.7131 180.317 70.1153 174.969 73.9746 171.115L69.5246 166.671C64.5232 171.666 61.4121 178.586 61.4121 186.215Z" fill="#008773"/>
<path d="M110.52 186.215C110.52 187.906 111.977 189.361 113.671 189.361C115.364 189.361 116.821 187.906 116.821 186.215C116.821 178.586 113.71 171.666 108.709 166.671L104.259 171.115C108.118 174.969 110.52 180.317 110.52 186.215Z" fill="#D8F3EF"/>
<path d="M89.097 164.823V158.532C81.4571 158.532 74.526 161.638 69.5247 166.632L73.9747 171.076C77.834 167.222 83.1898 164.823 89.097 164.823Z" fill="#4BCEB8"/>
<path d="M104.258 171.076L108.709 166.632C103.707 161.638 96.7761 158.532 89.1362 158.532V164.823C95.004 164.823 100.36 167.222 104.258 171.076Z" fill="#9AE4D7"/>
<path d="M76.4614 178.544L77.3497 174.123H78.3329L78.6516 176.164L78.7669 176.957H78.794L79.2009 176.164L80.313 174.123H81.303L80.4147 178.544H79.5467L79.9129 176.787C79.9355 176.679 79.9627 176.561 79.9943 176.435C80.0259 176.304 80.0598 176.173 80.096 176.042C80.1322 175.91 80.1683 175.784 80.2045 175.662C80.2407 175.535 80.2768 175.418 80.313 175.309H80.2927L79.7434 176.326L78.7059 178.137H78.3329L78.0074 176.326L77.8718 175.309H77.8447C77.8357 175.418 77.8244 175.535 77.8108 175.662C77.8017 175.788 77.7904 175.917 77.7769 176.048C77.7633 176.179 77.7475 176.308 77.7294 176.435C77.7113 176.561 77.691 176.679 77.6684 176.787L77.3158 178.544H76.4614ZM81.386 178.544L82.0641 175.18H82.9863L82.315 178.544H81.386ZM82.7015 174.679C82.575 174.679 82.4597 174.642 82.3557 174.57C82.2517 174.493 82.1997 174.38 82.1997 174.231C82.1997 174.159 82.2133 174.089 82.2404 174.021C82.2721 173.953 82.3128 173.894 82.3625 173.844C82.4167 173.795 82.4778 173.756 82.5456 173.729C82.6179 173.698 82.6948 173.682 82.7761 173.682C82.9072 173.682 83.0225 173.72 83.122 173.797C83.2259 173.874 83.2779 173.985 83.2779 174.129C83.2779 174.288 83.2214 174.419 83.1084 174.523C82.9999 174.627 82.8643 174.679 82.7015 174.679ZM84.0147 178.625C83.7706 178.625 83.5965 178.566 83.4925 178.449C83.3886 178.331 83.3366 178.171 83.3366 177.967C83.3366 177.85 83.3524 177.712 83.384 177.554L84.1367 173.79H85.0657L84.2995 177.594C84.2904 177.631 84.2859 177.658 84.2859 177.676C84.2859 177.689 84.2859 177.705 84.2859 177.723C84.2859 177.782 84.2972 177.823 84.3198 177.845C84.347 177.868 84.3786 177.879 84.4148 177.879C84.4374 177.879 84.4554 177.879 84.469 177.879C84.4826 177.879 84.5052 177.875 84.5368 177.866L84.5097 178.551C84.4509 178.573 84.3809 178.591 84.2995 178.605C84.2181 178.618 84.1232 178.625 84.0147 178.625ZM85.1498 177.188C85.1498 176.876 85.204 176.593 85.3125 176.34C85.4255 176.082 85.5702 175.863 85.7465 175.682C85.9273 175.497 86.1285 175.354 86.35 175.255C86.5715 175.151 86.7953 175.099 87.0213 175.099C87.2203 175.099 87.3898 175.133 87.5299 175.201C87.6701 175.264 87.7831 175.354 87.869 175.472C87.9594 175.585 88.0227 175.718 88.0588 175.872C88.0995 176.021 88.1199 176.184 88.1199 176.36C88.1199 176.442 88.1131 176.523 88.0995 176.604C88.086 176.681 88.0702 176.756 88.0521 176.828C88.034 176.896 88.0136 176.957 87.991 177.011C87.973 177.061 87.9571 177.099 87.9436 177.127H86.0313C86.0177 177.407 86.0833 177.61 86.228 177.737C86.3771 177.863 86.5625 177.927 86.784 177.927C86.888 177.927 86.9965 177.902 87.1095 177.852C87.2225 177.802 87.322 177.748 87.4079 177.689L87.7334 178.273C87.5977 178.367 87.4282 178.451 87.2248 178.523C87.0213 178.591 86.7885 178.625 86.5263 178.625C86.3229 178.625 86.1353 178.594 85.9635 178.53C85.7962 178.462 85.6516 178.367 85.5295 178.245C85.412 178.119 85.3193 177.967 85.2515 177.791C85.1837 177.615 85.1498 177.414 85.1498 177.188ZM86.1059 176.557H87.3265C87.3491 176.48 87.3604 176.396 87.3604 176.306C87.3604 176.17 87.3265 176.055 87.2587 175.96C87.1954 175.861 87.0779 175.811 86.9061 175.811C86.7478 175.811 86.5941 175.874 86.445 176.001C86.2958 176.123 86.1828 176.308 86.1059 176.557ZM89.4767 178.625C89.1784 178.625 88.9455 178.519 88.7783 178.306C88.611 178.094 88.5274 177.789 88.5274 177.391C88.5274 177.07 88.5771 176.772 88.6766 176.496C88.776 176.216 88.9094 175.971 89.0766 175.764C89.2439 175.556 89.436 175.393 89.653 175.275C89.87 175.158 90.0938 175.099 90.3244 175.099C90.4781 175.099 90.6227 175.14 90.7584 175.221C90.894 175.298 90.9934 175.404 91.0567 175.54H91.0703L91.2195 175.18H91.9586L91.2873 178.544H90.5346L90.5481 178.103H90.5278C90.3741 178.261 90.2046 178.388 90.0192 178.483C89.8339 178.578 89.653 178.625 89.4767 178.625ZM89.8836 177.866C89.9966 177.866 90.1164 177.832 90.243 177.764C90.3741 177.692 90.4939 177.561 90.6024 177.371L90.8397 176.177C90.7855 176.064 90.7154 175.983 90.6295 175.933C90.5481 175.883 90.469 175.858 90.3922 175.858C90.2746 175.858 90.1616 175.895 90.0531 175.967C89.9446 176.039 89.8474 176.139 89.7615 176.265C89.6802 176.392 89.6146 176.541 89.5649 176.713C89.5152 176.885 89.4903 177.072 89.4903 177.276C89.4903 177.479 89.5242 177.628 89.592 177.723C89.6643 177.818 89.7615 177.866 89.8836 177.866ZM93.2182 179.988C93.0148 179.988 92.8046 179.947 92.5876 179.866C92.3706 179.789 92.1672 179.672 91.9773 179.513L92.3774 178.896C92.5085 178.996 92.6464 179.079 92.791 179.147C92.9357 179.215 93.0871 179.249 93.2454 179.249C93.6884 179.249 93.9755 179.014 94.1066 178.544L94.2829 177.947C94.1337 178.105 93.9709 178.227 93.7946 178.313C93.6228 178.395 93.442 178.435 93.2521 178.435C92.9673 178.435 92.7323 178.34 92.5469 178.15C92.3616 177.956 92.2689 177.66 92.2689 177.262C92.2689 176.959 92.3164 176.677 92.4113 176.415C92.5107 176.152 92.6396 175.924 92.7978 175.73C92.9606 175.535 93.1482 175.382 93.3606 175.269C93.5731 175.156 93.7946 175.099 94.0252 175.099C94.1789 175.099 94.3213 175.14 94.4524 175.221C94.5835 175.298 94.6807 175.404 94.744 175.54H94.7643L94.9067 175.18H95.6594L95.0017 178.49C94.8977 178.991 94.692 179.367 94.3846 179.615C94.0817 179.864 93.6929 179.988 93.2182 179.988ZM93.6115 177.683C93.7246 177.683 93.8444 177.651 93.9709 177.588C94.0975 177.524 94.2151 177.409 94.3236 177.242L94.5338 176.177C94.475 176.064 94.4049 175.983 94.3236 175.933C94.2467 175.883 94.1699 175.858 94.093 175.858C93.9755 175.858 93.8647 175.892 93.7607 175.96C93.6568 176.023 93.5663 176.114 93.4895 176.231C93.4126 176.344 93.3493 176.48 93.2996 176.638C93.2544 176.792 93.2318 176.959 93.2318 177.14C93.2318 177.325 93.2657 177.463 93.3335 177.554C93.4013 177.64 93.494 177.683 93.6115 177.683ZM76.4681 186.188C76.4681 185.876 76.5224 185.593 76.6309 185.34C76.7439 185.082 76.8886 184.863 77.0649 184.682C77.2457 184.497 77.4469 184.354 77.6684 184.255C77.8899 184.151 78.1137 184.099 78.3397 184.099C78.5386 184.099 78.7082 184.133 78.8483 184.201C78.9884 184.264 79.1015 184.354 79.1873 184.472C79.2778 184.585 79.3411 184.718 79.3772 184.872C79.4179 185.021 79.4382 185.184 79.4382 185.36C79.4382 185.442 79.4315 185.523 79.4179 185.604C79.4043 185.681 79.3885 185.756 79.3704 185.828C79.3524 185.896 79.332 185.957 79.3094 186.011C79.2913 186.061 79.2755 186.099 79.2619 186.127H77.3497C77.3361 186.407 77.4017 186.61 77.5463 186.737C77.6955 186.863 77.8809 186.927 78.1024 186.927C78.2064 186.927 78.3148 186.902 78.4279 186.852C78.5409 186.802 78.6403 186.748 78.7262 186.689L79.0517 187.273C78.9161 187.367 78.7466 187.451 78.5431 187.523C78.3397 187.591 78.1069 187.625 77.8447 187.625C77.6413 187.625 77.4537 187.594 77.2819 187.53C77.1146 187.462 76.9699 187.367 76.8479 187.245C76.7303 187.119 76.6377 186.967 76.5699 186.791C76.502 186.615 76.4681 186.414 76.4681 186.188ZM77.4243 185.557H78.6449C78.6675 185.48 78.6788 185.396 78.6788 185.306C78.6788 185.17 78.6449 185.055 78.5771 184.96C78.5138 184.861 78.3962 184.811 78.2244 184.811C78.0662 184.811 77.9125 184.874 77.7633 185.001C77.6141 185.123 77.5011 185.308 77.4243 185.557Z" fill="#4BCEB8"/>
<path d="M88.9788 186.491C90.239 187.041 90.9478 188.26 90.5146 189.204C90.0815 190.187 88.7425 190.502 87.4823 189.951C87.3248 189.873 87.1673 189.794 87.0097 189.715L69.0127 180.16C68.8945 180.121 68.8945 180.003 68.8945 179.924C68.8945 179.845 69.0127 179.806 69.1308 179.845L88.4668 186.294C88.6637 186.373 88.8213 186.412 88.9788 186.491Z" fill="#F4F6F7"/>
<path d="M88.9788 186.491C90.239 187.041 90.9478 188.26 90.5146 189.204L68.8945 179.924C68.9339 179.845 69.0127 179.806 69.1308 179.845L88.4668 186.294C88.6637 186.373 88.8213 186.412 88.9788 186.491Z" fill="#D5D9DC"/>
<path d="M190.07 147.875C168.922 147.875 151.713 165.059 151.713 186.176C151.713 192.192 153.17 198.248 155.926 203.596C156.714 205.13 158.289 206.113 160.022 206.113H220.157C221.889 206.113 223.465 205.169 224.252 203.596C227.009 198.248 228.466 192.192 228.466 186.176C228.427 165.059 211.217 147.875 190.07 147.875Z" fill="#18304D"/>
<path opacity="0.25" d="M176.247 199.978C167.74 199.978 159.707 197.933 152.579 194.316C153.288 197.54 154.39 200.686 155.887 203.596C156.674 205.13 158.25 206.113 159.982 206.113H220.117C221.85 206.113 223.425 205.169 224.213 203.596C226.969 198.248 228.426 192.192 228.426 186.176C228.426 179.845 226.851 173.867 224.134 168.598C216.1 187.08 197.709 199.978 176.247 199.978Z" fill="#1791FE"/>
<path d="M220.157 209.18H159.983C157.068 209.18 154.469 207.568 153.17 205.012C150.216 199.231 148.641 192.703 148.641 186.215C148.641 163.408 167.229 144.847 190.07 144.847C212.91 144.847 231.498 163.408 231.498 186.215C231.498 192.743 229.923 199.231 226.969 205.012C225.67 207.607 223.031 209.18 220.157 209.18ZM190.07 150.942C170.615 150.942 154.784 166.75 154.784 186.176C154.784 191.72 156.123 197.265 158.644 202.18C158.919 202.692 159.431 203.006 160.022 203.006H220.157C220.747 203.006 221.259 202.692 221.535 202.18C224.055 197.226 225.394 191.72 225.394 186.176C225.355 166.75 209.524 150.942 190.07 150.942Z" fill="#D5D9DC"/>
<path opacity="0.5" d="M190.07 147.875C168.922 147.875 151.713 165.059 151.713 186.176C151.713 192.192 153.17 198.248 155.926 203.596C156.714 205.13 158.289 206.113 160.022 206.113H220.157C221.889 206.113 223.465 205.169 224.252 203.596C227.009 198.248 228.466 192.192 228.466 186.176C228.427 165.059 211.217 147.875 190.07 147.875ZM221.496 202.22C221.22 202.731 220.708 203.046 220.117 203.046H159.983C159.392 203.046 158.88 202.731 158.604 202.22C156.084 197.304 154.745 191.76 154.745 186.215C154.745 166.789 170.576 150.981 190.03 150.981C209.484 150.981 225.316 166.789 225.316 186.215C225.355 191.76 224.016 197.304 221.496 202.22Z" fill="#6B7781"/>
<path opacity="0.5" d="M228.387 184.013C228.387 183.777 228.348 183.58 228.348 183.384C228.308 182.873 228.269 182.361 228.19 181.85C228.151 181.614 228.151 181.378 228.112 181.182C228.033 180.67 227.954 180.159 227.875 179.609C227.836 179.412 227.796 179.215 227.757 179.058C227.639 178.429 227.521 177.839 227.363 177.21C227.363 177.131 227.324 177.053 227.324 176.974C226.773 174.772 226.024 172.688 225.158 170.643V170.604C224.843 169.935 224.528 169.267 224.213 168.598C223.701 169.817 223.11 170.997 222.519 172.137C224.41 176.463 225.473 181.182 225.473 186.176C225.473 191.72 224.134 197.265 221.614 202.18C221.338 202.691 220.826 203.006 220.235 203.006H159.983C159.392 203.006 158.88 202.691 158.604 202.18C157.58 200.175 156.753 198.091 156.123 195.928C154.902 195.417 153.721 194.905 152.54 194.276C152.697 195.063 152.894 195.849 153.13 196.636V196.675C153.327 197.422 153.563 198.13 153.839 198.877C153.878 198.956 153.879 198.995 153.918 199.074C154.154 199.742 154.43 200.371 154.666 201.04C154.705 201.158 154.745 201.276 154.824 201.394C155.139 202.141 155.493 202.849 155.848 203.557C156.635 205.09 158.21 206.073 159.943 206.073H220.078C221.811 206.073 223.386 205.13 224.173 203.557C226.93 198.209 228.387 192.153 228.387 186.136C228.427 185.468 228.427 184.721 228.387 184.013Z" fill="#6D6D80"/>
<path d="M162.385 186.215C162.385 187.906 163.842 189.361 165.535 189.361C167.229 189.361 168.686 187.906 168.686 186.215C168.686 180.317 171.088 174.969 174.947 171.115L170.497 166.671C165.456 171.666 162.385 178.586 162.385 186.215Z" fill="#EFDBDC"/>
<path d="M211.493 186.215C211.493 187.906 212.95 189.361 214.643 189.361C216.337 189.361 217.794 187.906 217.794 186.215C217.794 178.586 214.683 171.666 209.681 166.671L205.231 171.115C209.091 174.969 211.493 180.317 211.493 186.215Z" fill="#CF2416"/>
<path d="M190.07 164.823V158.532C182.43 158.532 175.499 161.638 170.497 166.632L174.947 171.076C178.807 167.222 184.162 164.823 190.07 164.823Z" fill="#EBA7A2"/>
<path d="M205.192 171.076L209.642 166.632C204.641 161.638 197.709 158.532 190.07 158.532V164.823C195.977 164.823 201.333 167.222 205.192 171.076Z" fill="#DE645F"/>
<path d="M179.094 176.742L179.825 173.101H180.976C181.154 173.101 181.318 173.12 181.467 173.157C181.62 173.19 181.752 173.246 181.863 173.324C181.975 173.399 182.063 173.497 182.126 173.62C182.189 173.743 182.221 173.892 182.221 174.067C182.221 174.32 182.176 174.536 182.087 174.715C181.998 174.894 181.877 175.041 181.724 175.156C181.571 175.268 181.393 175.35 181.188 175.402C180.987 175.454 180.771 175.48 180.54 175.48H180.11L179.864 176.742H179.094ZM180.238 174.871H180.624C180.896 174.871 181.104 174.813 181.249 174.698C181.394 174.583 181.467 174.41 181.467 174.179C181.467 174.015 181.413 173.896 181.305 173.821C181.201 173.747 181.05 173.71 180.853 173.71H180.462L180.238 174.871ZM182.271 176.742L182.818 173.972H183.438L183.405 174.508H183.427C183.535 174.333 183.664 174.19 183.812 174.078C183.961 173.963 184.116 173.905 184.276 173.905C184.347 173.905 184.404 173.911 184.449 173.922C184.498 173.929 184.537 173.942 184.566 173.961L184.315 174.62C184.278 174.601 184.233 174.59 184.181 174.586C184.133 174.579 184.086 174.575 184.041 174.575C183.919 174.575 183.799 174.62 183.684 174.709C183.569 174.799 183.457 174.942 183.349 175.139L183.036 176.742H182.271ZM184.444 175.625C184.444 175.368 184.488 175.135 184.578 174.927C184.671 174.715 184.79 174.534 184.935 174.385C185.084 174.233 185.25 174.115 185.432 174.034C185.615 173.948 185.799 173.905 185.985 173.905C186.149 173.905 186.288 173.933 186.404 173.989C186.519 174.041 186.612 174.115 186.683 174.212C186.757 174.305 186.81 174.415 186.839 174.542C186.873 174.665 186.89 174.799 186.89 174.944C186.89 175.011 186.884 175.078 186.873 175.145C186.862 175.208 186.849 175.27 186.834 175.329C186.819 175.385 186.802 175.435 186.784 175.48C186.769 175.521 186.756 175.552 186.744 175.575H185.17C185.158 175.806 185.212 175.973 185.332 176.077C185.454 176.182 185.607 176.234 185.79 176.234C185.875 176.234 185.964 176.213 186.058 176.172C186.151 176.131 186.233 176.087 186.303 176.038L186.571 176.519C186.46 176.597 186.32 176.666 186.152 176.725C185.985 176.781 185.793 176.809 185.577 176.809C185.41 176.809 185.255 176.783 185.114 176.731C184.976 176.675 184.857 176.597 184.756 176.496C184.66 176.392 184.583 176.267 184.527 176.122C184.472 175.977 184.444 175.811 184.444 175.625ZM185.231 175.106H186.236C186.255 175.042 186.264 174.974 186.264 174.899C186.264 174.787 186.236 174.692 186.18 174.614C186.128 174.532 186.031 174.491 185.89 174.491C185.76 174.491 185.633 174.544 185.51 174.648C185.387 174.748 185.294 174.901 185.231 175.106ZM187.13 176.742L187.678 173.972H188.297L188.286 174.341H188.309C188.443 174.222 188.586 174.119 188.739 174.034C188.891 173.948 189.046 173.905 189.202 173.905C189.411 173.905 189.56 173.95 189.649 174.039C189.742 174.128 189.807 174.246 189.844 174.391C190.001 174.249 190.157 174.134 190.313 174.045C190.47 173.952 190.626 173.905 190.782 173.905C191.013 173.905 191.179 173.966 191.28 174.089C191.384 174.208 191.436 174.383 191.436 174.614C191.436 174.678 191.432 174.743 191.425 174.81C191.417 174.873 191.406 174.94 191.391 175.011L191.045 176.742H190.28L190.609 175.106C190.621 175.05 190.63 175.001 190.637 174.961C190.648 174.92 190.654 174.88 190.654 174.843C190.654 174.653 190.561 174.558 190.375 174.558C190.312 174.558 190.235 174.588 190.146 174.648C190.057 174.704 189.952 174.793 189.833 174.916L189.465 176.742H188.7L189.029 175.106C189.04 175.05 189.049 175.001 189.057 174.961C189.068 174.92 189.074 174.88 189.074 174.843C189.074 174.746 189.049 174.676 189.001 174.631C188.956 174.583 188.891 174.558 188.806 174.558C188.739 174.558 188.659 174.588 188.565 174.648C188.476 174.704 188.372 174.793 188.253 174.916L187.895 176.742H187.13ZM191.749 176.742L192.308 173.972H193.067L192.514 176.742H191.749ZM192.833 173.559C192.729 173.559 192.634 173.529 192.548 173.469C192.462 173.406 192.42 173.313 192.42 173.19C192.42 173.131 192.431 173.073 192.453 173.017C192.479 172.961 192.513 172.913 192.554 172.872C192.598 172.831 192.649 172.799 192.704 172.777C192.764 172.751 192.827 172.738 192.894 172.738C193.002 172.738 193.097 172.77 193.179 172.833C193.265 172.896 193.307 172.987 193.307 173.106C193.307 173.237 193.261 173.345 193.168 173.43C193.079 173.516 192.967 173.559 192.833 173.559ZM196.103 173.972L195.556 176.742H194.936L194.947 176.368H194.925C194.798 176.487 194.657 176.591 194.501 176.681C194.348 176.766 194.188 176.809 194.02 176.809C193.79 176.809 193.622 176.749 193.518 176.63C193.417 176.507 193.367 176.329 193.367 176.094C193.367 176.031 193.371 175.968 193.378 175.904C193.386 175.841 193.397 175.774 193.412 175.703L193.758 173.972H194.517L194.193 175.608C194.179 175.664 194.167 175.713 194.16 175.754C194.152 175.794 194.149 175.834 194.149 175.871C194.149 176.061 194.242 176.156 194.428 176.156C194.584 176.156 194.769 176.036 194.981 175.798L195.338 173.972H196.103ZM179.015 183.742L179.563 180.972H180.183L180.171 181.341H180.194C180.328 181.222 180.471 181.119 180.624 181.034C180.776 180.948 180.931 180.905 181.087 180.905C181.296 180.905 181.445 180.95 181.534 181.039C181.627 181.128 181.692 181.246 181.729 181.391C181.886 181.249 182.042 181.134 182.199 181.045C182.355 180.952 182.511 180.905 182.668 180.905C182.898 180.905 183.064 180.966 183.165 181.089C183.269 181.208 183.321 181.383 183.321 181.614C183.321 181.678 183.317 181.743 183.31 181.81C183.302 181.873 183.291 181.94 183.276 182.011L182.93 183.742H182.165L182.495 182.106C182.506 182.05 182.515 182.001 182.522 181.961C182.534 181.92 182.539 181.88 182.539 181.843C182.539 181.653 182.446 181.558 182.26 181.558C182.197 181.558 182.12 181.588 182.031 181.648C181.942 181.704 181.837 181.793 181.718 181.916L181.35 183.742H180.585L180.914 182.106C180.925 182.05 180.935 182.001 180.942 181.961C180.953 181.92 180.959 181.88 180.959 181.843C180.959 181.746 180.935 181.676 180.886 181.631C180.842 181.583 180.776 181.558 180.691 181.558C180.624 181.558 180.544 181.588 180.451 181.648C180.361 181.704 180.257 181.793 180.138 181.916L179.781 183.742H179.015Z" fill="#DE645F"/>
<path d="M191.33 188.889C190.345 189.951 188.888 190.266 188.14 189.519C187.392 188.811 187.549 187.356 188.573 186.294C188.691 186.137 188.849 186.019 189.006 185.901L205.074 171.233C205.153 171.155 205.271 171.155 205.31 171.194C205.349 171.233 205.389 171.351 205.31 171.43L191.724 188.417C191.605 188.575 191.487 188.732 191.33 188.889Z" fill="#F4F6F7"/>
<path d="M191.33 188.889C190.345 189.951 188.888 190.266 188.14 189.519L205.31 171.194C205.349 171.233 205.389 171.351 205.31 171.43L191.724 188.418C191.605 188.575 191.487 188.732 191.33 188.889Z" fill="#D5D9DC"/>
<path d="M141.789 140.483C141.749 140.522 141.71 140.562 141.67 140.601C141.552 140.719 141.434 140.798 141.277 140.876C140.213 141.505 138.835 141.387 137.929 140.522C137.85 140.444 137.772 140.326 137.693 140.168L135.212 134.899C135.094 134.584 135.133 134.27 135.33 133.995L135.369 133.955C135.409 133.916 135.409 133.916 135.448 133.877C135.724 133.601 136.118 133.562 136.472 133.719L138.284 134.663L140.41 135.804L141.67 136.472C141.789 136.511 141.907 136.629 141.985 136.708C142.379 137.18 142.616 137.77 142.655 138.36C142.655 138.438 142.655 138.517 142.655 138.595C142.655 139.067 142.497 139.539 142.261 139.932C142.143 140.09 141.985 140.286 141.789 140.483Z" fill="#F4F6F7"/>
<path opacity="0.5" d="M141.79 140.482C141.75 140.522 141.711 140.561 141.672 140.6C141.553 140.718 141.396 140.797 141.278 140.876C141.278 140.876 141.278 140.876 141.238 140.876C141.238 140.876 141.238 140.876 141.238 140.836C141.475 140.482 141.593 140.089 141.632 139.696C141.632 139.617 141.672 139.499 141.672 139.421C141.672 139.145 141.632 138.831 141.554 138.556C141.435 138.202 141.278 137.848 141.042 137.573L141.002 137.533C140.923 137.415 140.805 137.337 140.687 137.297L140.057 136.983L138.718 136.275L135.489 134.584C135.41 134.545 135.292 134.505 135.213 134.505C135.174 134.505 135.134 134.466 135.174 134.427C135.174 134.269 135.253 134.112 135.331 133.955L135.371 133.915C135.41 133.876 135.41 133.876 135.449 133.837C135.725 133.562 136.119 133.522 136.473 133.68L138.285 134.623L140.411 135.764L141.672 136.432C141.79 136.471 141.908 136.589 141.987 136.668C142.38 137.14 142.617 137.73 142.656 138.32C142.656 138.398 142.656 138.477 142.656 138.556C142.656 139.028 142.499 139.499 142.262 139.893C142.144 140.089 141.987 140.286 141.79 140.482Z" fill="white"/>
<path d="M128.723 129.74L129.35 126.619H130.005L129.383 129.74H128.723ZM130.063 129.74L130.532 127.366H131.063L131.053 127.682H131.073C131.191 127.58 131.315 127.492 131.446 127.418C131.577 127.345 131.719 127.308 131.872 127.308C132.07 127.308 132.213 127.361 132.303 127.466C132.392 127.568 132.437 127.718 132.437 127.916C132.437 127.97 132.434 128.026 132.427 128.084C132.421 128.138 132.411 128.195 132.399 128.256L132.102 129.74H131.446L131.728 128.337C131.738 128.29 131.746 128.248 131.752 128.213C131.762 128.178 131.767 128.144 131.767 128.112C131.767 127.95 131.685 127.868 131.523 127.868C131.449 127.868 131.373 127.894 131.293 127.945C131.216 127.993 131.127 128.069 131.025 128.175L130.718 129.74H130.063ZM132.704 129.74L133.173 127.366H133.704L133.695 127.682H133.714C133.832 127.58 133.956 127.492 134.087 127.418C134.218 127.345 134.36 127.308 134.513 127.308C134.711 127.308 134.855 127.361 134.944 127.466C135.033 127.568 135.078 127.718 135.078 127.916C135.078 127.97 135.075 128.026 135.068 128.084C135.062 128.138 135.052 128.195 135.04 128.256L134.743 129.74H134.087L134.369 128.337C134.379 128.29 134.387 128.248 134.393 128.213C134.403 128.178 134.408 128.144 134.408 128.112C134.408 127.95 134.326 127.868 134.164 127.868C134.09 127.868 134.014 127.894 133.934 127.945C133.857 127.993 133.768 128.069 133.666 128.175L133.359 129.74H132.704ZM136.34 129.797C136.2 129.797 136.074 129.775 135.962 129.73C135.851 129.682 135.753 129.615 135.67 129.529C135.59 129.443 135.528 129.341 135.484 129.223C135.442 129.102 135.421 128.968 135.421 128.821C135.421 128.591 135.46 128.384 135.536 128.199C135.613 128.01 135.713 127.851 135.838 127.72C135.965 127.589 136.109 127.489 136.269 127.418C136.428 127.345 136.589 127.308 136.752 127.308C136.889 127.308 137.014 127.332 137.125 127.38C137.24 127.425 137.338 127.49 137.417 127.576C137.497 127.662 137.559 127.766 137.604 127.887C137.649 128.006 137.671 128.138 137.671 128.285C137.671 128.515 137.633 128.724 137.556 128.912C137.48 129.097 137.378 129.255 137.25 129.386C137.125 129.517 136.983 129.619 136.824 129.692C136.664 129.762 136.503 129.797 136.34 129.797ZM136.412 129.271C136.492 129.271 136.567 129.247 136.637 129.199C136.711 129.148 136.774 129.079 136.829 128.993C136.886 128.907 136.931 128.805 136.963 128.687C136.995 128.569 137.011 128.44 137.011 128.299C137.011 128.152 136.982 128.039 136.924 127.959C136.87 127.876 136.787 127.835 136.675 127.835C136.596 127.835 136.519 127.86 136.446 127.911C136.376 127.959 136.313 128.026 136.259 128.112C136.205 128.199 136.162 128.302 136.13 128.424C136.098 128.542 136.082 128.669 136.082 128.806C136.082 128.95 136.109 129.063 136.163 129.146C136.218 129.229 136.301 129.271 136.412 129.271ZM138.297 129.74L137.996 127.366H138.647L138.728 128.529C138.738 128.647 138.744 128.767 138.747 128.888C138.75 129.009 138.754 129.13 138.757 129.252H138.776C138.83 129.13 138.883 129.011 138.934 128.893C138.985 128.771 139.038 128.65 139.092 128.529L139.623 127.366H140.265L139.054 129.74H138.297ZM140.878 129.797C140.668 129.797 140.503 129.722 140.385 129.572C140.267 129.422 140.208 129.207 140.208 128.926C140.208 128.7 140.243 128.489 140.313 128.294C140.384 128.096 140.478 127.924 140.596 127.777C140.714 127.631 140.85 127.516 141.003 127.433C141.156 127.35 141.314 127.308 141.477 127.308C141.585 127.308 141.687 127.337 141.783 127.394C141.879 127.449 141.949 127.524 141.994 127.619H142.003L142.108 127.366H142.63L142.156 129.74H141.625L141.635 129.429H141.62C141.512 129.54 141.392 129.63 141.261 129.697C141.13 129.764 141.003 129.797 140.878 129.797ZM141.165 129.261C141.245 129.261 141.33 129.237 141.419 129.189C141.512 129.138 141.596 129.046 141.673 128.912L141.84 128.069C141.802 127.99 141.753 127.932 141.692 127.897C141.635 127.862 141.579 127.844 141.524 127.844C141.441 127.844 141.362 127.87 141.285 127.921C141.209 127.972 141.14 128.042 141.079 128.132C141.022 128.221 140.976 128.326 140.94 128.447C140.905 128.569 140.888 128.701 140.888 128.845C140.888 128.988 140.912 129.094 140.96 129.161C141.011 129.228 141.079 129.261 141.165 129.261ZM143.672 129.797C143.433 129.797 143.261 129.738 143.156 129.62C143.05 129.502 142.998 129.352 142.998 129.17C142.998 129.119 143.001 129.07 143.007 129.022C143.017 128.971 143.026 128.92 143.036 128.869L143.242 127.878H142.926L143.022 127.394L143.371 127.366L143.572 126.743H144.122L144.003 127.366H144.544L144.443 127.878H143.888L143.682 128.897C143.676 128.926 143.672 128.953 143.672 128.979C143.672 129.004 143.672 129.03 143.672 129.055C143.672 129.209 143.754 129.285 143.917 129.285C143.952 129.285 143.985 129.28 144.017 129.271C144.049 129.261 144.081 129.248 144.113 129.232L144.228 129.692C144.164 129.718 144.086 129.741 143.993 129.764C143.901 129.786 143.794 129.797 143.672 129.797ZM144.525 129.74L145.004 127.366H145.655L145.181 129.74H144.525ZM145.454 127.011C145.365 127.011 145.283 126.986 145.21 126.935C145.137 126.881 145.1 126.801 145.1 126.696C145.1 126.645 145.109 126.595 145.129 126.547C145.151 126.499 145.18 126.458 145.215 126.423C145.253 126.388 145.296 126.361 145.344 126.341C145.395 126.319 145.449 126.308 145.507 126.308C145.599 126.308 145.681 126.335 145.751 126.389C145.824 126.443 145.861 126.522 145.861 126.624C145.861 126.735 145.821 126.828 145.741 126.901C145.665 126.975 145.569 127.011 145.454 127.011ZM146.788 129.797C146.647 129.797 146.521 129.775 146.41 129.73C146.298 129.682 146.201 129.615 146.118 129.529C146.038 129.443 145.976 129.341 145.931 129.223C145.89 129.102 145.869 128.968 145.869 128.821C145.869 128.591 145.907 128.384 145.984 128.199C146.06 128.01 146.161 127.851 146.285 127.72C146.413 127.589 146.556 127.489 146.716 127.418C146.876 127.345 147.037 127.308 147.199 127.308C147.337 127.308 147.461 127.332 147.573 127.38C147.688 127.425 147.785 127.49 147.865 127.576C147.945 127.662 148.007 127.766 148.051 127.887C148.096 128.006 148.118 128.138 148.118 128.285C148.118 128.515 148.08 128.724 148.004 128.912C147.927 129.097 147.825 129.255 147.697 129.386C147.573 129.517 147.431 129.619 147.271 129.692C147.112 129.762 146.951 129.797 146.788 129.797ZM146.86 129.271C146.939 129.271 147.014 129.247 147.085 129.199C147.158 129.148 147.222 129.079 147.276 128.993C147.333 128.907 147.378 128.805 147.41 128.687C147.442 128.569 147.458 128.44 147.458 128.299C147.458 128.152 147.429 128.039 147.372 127.959C147.318 127.876 147.235 127.835 147.123 127.835C147.043 127.835 146.967 127.86 146.893 127.911C146.823 127.959 146.761 128.026 146.706 128.112C146.652 128.199 146.609 128.302 146.577 128.424C146.545 128.542 146.529 128.669 146.529 128.806C146.529 128.95 146.556 129.063 146.611 129.146C146.665 129.229 146.748 129.271 146.86 129.271ZM128.656 135.74L129.125 133.366H129.656L129.646 133.682H129.666C129.784 133.58 129.908 133.492 130.039 133.418C130.17 133.345 130.312 133.308 130.465 133.308C130.663 133.308 130.806 133.361 130.896 133.466C130.985 133.568 131.03 133.718 131.03 133.916C131.03 133.97 131.027 134.026 131.02 134.084C131.014 134.138 131.004 134.195 130.992 134.256L130.695 135.74H130.039L130.321 134.337C130.331 134.29 130.339 134.248 130.345 134.213C130.355 134.178 130.36 134.144 130.36 134.112C130.36 133.95 130.278 133.868 130.116 133.868C130.042 133.868 129.966 133.894 129.886 133.945C129.809 133.993 129.72 134.069 129.618 134.175L129.311 135.74H128.656Z" fill="#1791FE"/>
<path d="M111.024 139.741L111.755 136.1H113.911L113.788 136.742H112.386L112.23 137.535H113.419L113.296 138.177H112.107L111.917 139.098H113.363L113.241 139.741H111.024Z" fill="#B9DEFD"/>
<path d="M164.581 140.134L165.313 136.493H167.469L167.346 137.135H165.944L165.771 138.028H166.955L166.832 138.671H165.642L165.352 140.134H164.581Z" fill="#0271E1"/>
<path d="M123.28 129.196C121.429 131.949 120.287 135.213 120.05 138.713H117.963C118.199 134.82 119.46 131.241 121.468 128.174L123.28 129.196Z" fill="#B9DEFD"/>
<path d="M130.486 122.708C127.572 124.242 125.091 126.483 123.24 129.196L121.429 128.174C123.437 125.146 126.194 122.629 129.423 120.939L130.486 122.708Z" fill="#8CC9FE"/>
<path d="M139.702 120.467C139.662 120.467 139.583 120.467 139.544 120.467C136.275 120.467 133.164 121.293 130.486 122.708L129.423 120.899C132.455 119.287 135.882 118.383 139.544 118.383H139.702V120.467Z" fill="#5AB3FF"/>
<path d="M149.862 120.978L148.838 122.787C146.121 121.332 143.009 120.467 139.701 120.467V118.383C143.364 118.422 146.829 119.366 149.862 120.978Z" fill="#1791FE"/>
<path d="M157.659 128.174L155.887 129.236C154.115 126.562 151.673 124.359 148.838 122.826L149.862 121.017C153.012 122.708 155.69 125.185 157.659 128.174Z" fill="#0271E1"/>
<path d="M161.164 138.437L159.077 138.477C158.801 135.095 157.659 131.91 155.848 129.236L157.62 128.174C159.668 131.163 160.888 134.662 161.164 138.437Z" fill="#0271E1"/>
<path d="M161.243 140.01C161.243 140.6 160.77 141.033 160.219 141.033C159.628 141.033 159.195 140.561 159.195 140.01C159.195 139.499 159.156 138.949 159.116 138.437L161.203 138.398C161.203 138.949 161.243 139.499 161.243 140.01Z" fill="#0271E1"/>
<path d="M120.011 138.713C119.972 139.145 119.972 139.617 119.972 140.05C119.972 140.64 119.499 141.072 118.948 141.072C118.357 141.072 117.924 140.6 117.924 140.05C117.924 139.617 117.924 139.145 117.963 138.713H120.011Z" fill="#B9DEFD"/>
<path opacity="0.1" d="M227.639 246.183C219.172 250.784 209.681 254.716 199.363 257.902C194.323 259.474 189.085 260.851 183.65 262.03L76.6919 119.759C82.4415 118.068 88.388 116.652 94.5708 115.472C104.77 113.506 115.482 112.248 126.588 111.776L227.639 246.183Z" fill="white"/>
<path opacity="0.1" d="M176.168 263.525C172.506 264.193 168.804 264.744 165.023 265.216C161.755 265.648 158.447 265.963 155.06 266.238L51.9607 129.078C57.5134 126.444 63.4599 124.045 69.7215 121.922L176.168 263.525Z" fill="white"/>
</g>
<defs>
<clipPath id="clip0_18_1349">
<rect width="276.827" height="215" fill="white" transform="translate(0.434082)"/>
</clipPath>
</defs>
</svg>
