<svg width="263" height="350" viewBox="0 0 263 350" fill="none" xmlns="http://www.w3.org/2000/svg">
<g clip-path="url(#clip0_18_1447)">
<path d="M128.679 341.274L88.6308 330.543C95.2015 331.93 101.925 333.583 108.82 335.43C115.646 337.259 122.365 339.209 128.679 341.274Z" fill="#D5D9DC"/>
<path d="M206.059 362.008L201.711 378.236C198.24 391.191 151.835 390.253 97.9963 375.827C44.1575 361.401 2.79941 339.121 6.27062 326.167L10.9722 309.734L206.059 362.008Z" fill="#A7B0B8"/>
<path d="M102.541 358.307C156.432 372.747 202.927 373.976 206.39 361.051C209.853 348.127 168.973 325.943 115.082 311.503C61.1912 297.063 14.6965 295.835 11.2333 308.759C7.7702 321.684 48.6501 343.867 102.541 358.307Z" fill="#D5D9DC"/>
<path d="M197.765 352.843C189.724 361.96 155.766 365.552 110.228 354.694C64.7408 343.924 30.1732 325.554 32.9789 313.69C35.7846 301.826 75.2354 303.364 120.723 314.134C166.191 324.974 203.863 345.967 197.765 352.843Z" fill="#B2BCC4"/>
<path d="M23.9148 307.678C21.1985 306.95 19.5669 304.124 20.2947 301.408L91.2492 36.6025C91.977 33.8862 94.803 32.2546 97.5193 32.9824C100.236 33.7103 101.867 36.5362 101.139 39.2526L30.2035 303.989C29.5267 306.793 26.7007 308.425 23.9148 307.678Z" fill="#E3E5E8"/>
<path d="M104.879 26.9669L30.4161 304.867C29.8936 306.817 27.4955 307.966 24.7182 307.744C24.278 306.88 24.0654 306.002 24.308 305.096L98.771 27.1965C99.2935 25.2463 101.692 24.0973 104.469 24.3189C104.909 25.1834 105.103 26.1311 104.879 26.9669Z" fill="#C5D0D9"/>
<path opacity="0.5" d="M203.958 320.537C192.331 363.928 169.693 367.343 104.947 350.442C42.4992 334.157 20.9061 322.25 33.5965 274.888C44.4394 234.422 113.424 210.431 137.796 201.659C144.906 199.085 147.183 190.587 142.313 184.803C125.592 165.02 76.3894 115.183 88.1281 71.374C100.818 24.0126 138.377 26.7608 188.181 39.8072C234.642 51.9578 270.116 73.6309 258.49 117.022C245.351 166.055 180.936 179.401 155.667 188.456C148.645 190.979 145.115 199.141 149.934 204.836C167.239 225.224 215.566 277.215 203.958 320.537Z" fill="#B9DEFD"/>
<path opacity="0.3" d="M165.246 233.499C166.608 232.595 176.815 242.421 191.086 271.626C198.61 287.004 199.996 301.335 196.843 311.986C195.211 317.521 188.545 330.142 185.047 330.101C181.043 329.999 179.824 320.341 178.105 313.385C174.911 300.511 176.638 285.148 176.496 280.108C175.591 251.723 163.512 234.676 165.246 233.499Z" fill="#F4F6F7"/>
<path opacity="0.5" d="M118.492 213.805C117.579 211.918 100.296 216.245 66.2409 239.144C48.3906 251.158 37.7875 265.934 34.5153 279.539C32.7883 286.541 32.135 304.581 35.9644 306.727C40.3833 309.18 47.7895 299.37 54.0909 292.847C65.6614 280.868 73.4489 262.948 76.8274 257.583C95.7402 227.117 119.66 216.133 118.492 213.805Z" fill="#F4F6F7"/>
<path d="M187.844 348.916C186.851 351.785 180.949 354.309 175.657 355.952C163.929 359.602 149.305 357.625 144.267 356.648C120.747 352.212 103.734 347.728 100.13 346.688C88.6384 343.609 81.1909 341.314 66.4453 336.169C63.4367 335.139 60.6235 333.937 58.0378 332.722C56.2506 331.87 54.6027 331.055 53.0617 330.119C48.4712 327.471 44.6195 324.573 41.1398 321.401C35.3356 316.039 31.1124 309.234 36.9596 305.799C41.1102 303.402 51.355 304.729 56.0201 307.099C76.0127 317.457 99.2725 314.508 106.215 311.441C108.595 310.362 115.131 305.47 116.803 305.918C116.942 305.955 117.063 306.062 117.183 306.169C117.253 306.188 117.234 306.257 117.304 306.276C118.106 307.461 118.218 311.224 120.704 314.204C126.979 321.708 144.103 331.074 171.124 336.373C172.257 336.602 173.46 336.85 174.681 337.028C183.017 338.515 189.517 344.064 187.844 348.916Z" fill="#F19353"/>
<path d="M227.599 143.159C208.414 156.531 177.415 148.524 160.852 144.309C155.122 142.849 149.346 141.003 143.645 138.878C122.563 130.915 102.745 118.513 93.9886 103.551C92.3383 100.794 86.9151 91.503 88.7207 80.864C89.3192 77.5158 90.1281 73.1043 94.4093 70.2204C96.4082 68.8897 100.668 64.1339 114.54 66.1338C130.455 68.3081 130.534 80.2731 144.019 82.319C151.835 83.5174 156.845 85.1583 160.419 86.8626C168.418 90.7227 169.374 95.2339 178.916 97.7906C196.885 102.606 204.454 92.4658 221.539 98.9099C223.712 99.7161 235.927 104.557 240.067 114.176C245.051 125.664 235.776 137.437 227.599 143.159Z" fill="#EEB78B"/>
<path d="M144.878 137.342C144.519 137.843 144.073 138.395 143.575 138.859C122.493 130.896 102.675 118.494 93.9188 103.532C92.2685 100.776 86.8453 91.4843 88.6509 80.8453C89.2494 77.4971 90.0582 73.0856 94.3395 70.2017C96.3384 68.871 100.599 64.1152 114.47 66.1152C130.455 68.308 130.533 80.273 144.019 82.3189C151.835 83.5173 156.845 85.1583 160.419 86.8626C157.129 87.9966 153.376 88.6331 150.451 90.9101C138.912 99.9861 154.201 124.835 144.878 137.342Z" fill="#EA976B"/>
<path d="M241.48 144.564C234.55 152.038 225.378 158.688 213.964 164.513C205.389 168.934 195.667 172.898 184.622 176.507C159.596 184.657 155.578 188.507 148.474 186.604C143.738 185.335 133.26 172.897 123.364 160.243C119.872 155.724 116.449 151.223 113.37 147.114C89.8307 115.724 88.9037 90.7668 88.9037 90.7668C88.9037 90.7668 89.0753 90.9621 89.4372 91.283C90.1867 97.6797 94.0529 119.468 113.743 145.721C116.771 149.742 120.175 154.312 123.737 158.85C133.564 171.486 144.111 183.942 148.847 185.211C155.952 187.114 160.039 183.283 184.996 175.115C196.041 171.505 205.832 167.559 214.337 163.12C225.77 157.225 234.924 150.645 241.853 143.171C247.713 136.903 254.939 126.373 257.822 116.171C255.194 126.814 247.554 138.055 241.48 144.564Z" fill="#F19353"/>
<path d="M257.822 116.172C254.87 126.354 247.644 136.884 241.853 143.171C234.924 150.645 225.752 157.295 214.337 163.12C205.762 167.541 196.041 171.505 184.996 175.115C159.969 183.264 155.952 187.114 148.847 185.211C144.111 183.942 133.634 171.505 123.737 158.85C120.245 154.331 116.822 149.831 113.743 145.721C94.053 119.468 90.1868 97.6798 89.4373 91.2831C91.1449 92.7111 96.7975 96.6891 105.898 95.3205C121.187 93.1465 118.084 112.247 132.436 116.913C140.821 119.608 141.457 111.94 155.116 108.882C169.863 105.667 172.577 111.694 185.182 108.95C200.016 105.684 198.313 96.7177 215.738 91.3089C220.133 89.9486 235.044 85.2845 248.054 92.727C250.964 94.4026 254.534 96.4041 256.689 100.341C259.201 104.896 259.283 110.442 257.822 116.172Z" fill="#F19353"/>
<path d="M257.822 116.171C259.213 110.423 259.201 104.896 256.67 100.41C254.515 96.4737 250.964 94.4025 248.036 92.7966C235.025 85.354 220.115 90.0181 215.719 91.3784C198.206 96.8383 199.998 105.754 185.163 109.02C172.628 111.782 169.914 105.755 155.098 108.951C141.457 111.94 140.751 119.589 132.417 116.983C118.047 112.386 121.168 93.216 105.88 95.3901C96.7278 96.6703 91.0566 92.762 89.4187 91.3526C89.2994 90.1263 89.2584 89.4434 89.2584 89.4434C89.2584 89.4434 95.2242 95.5956 106.322 94.0157C121.611 91.8417 118.509 110.942 132.86 115.608C141.245 118.303 141.881 110.635 155.541 107.577C170.287 104.362 173.002 110.389 185.606 107.645C200.441 104.379 198.738 95.4129 216.162 90.0041C220.557 88.6438 235.468 83.9797 248.478 91.4223C251.389 93.0979 254.958 95.0994 257.113 99.0361C259.848 103.875 259.641 109.94 257.822 116.171Z" fill="#EEB78B"/>
<path d="M255.458 123.6C247.147 156.011 195.263 173.014 184.623 176.508C164.168 183.195 154.455 187.684 151.784 188.461C148.866 189.321 147.971 191.545 147.505 193.286L138.08 228.459C138.006 228.738 137.652 228.942 137.374 228.867C137.095 228.792 136.891 228.439 136.966 228.161L146.428 192.849C146.932 190.968 146.963 188.065 145.451 186.466C141.067 181.932 132.458 171.712 124.839 161.982C124.222 161.219 124.767 160.021 125.816 160.004C127.846 159.951 130.368 163.911 131.779 165.334C144.058 177.732 143.296 166.927 154.018 168.979C158.708 169.862 163.807 178.694 173.171 174.111C183.577 168.986 199.476 173.172 227.684 149.527C237.992 140.867 250.551 125.197 252.479 93.7635C252.479 93.7635 258.05 96.3759 258.818 102.703C259.668 110.396 255.514 123.391 255.458 123.6Z" fill="#E2783C"/>
<path opacity="0.5" d="M116.419 56.3357C112.365 51.9648 101.373 57.6043 94.8949 64.2292C84.3755 75.0714 89.2505 96.1598 91.9461 106.437C99.7233 135.918 130.189 170.432 132.573 169.055C135.311 167.475 113.7 143.097 113.351 104.559C113.225 86.0862 124.959 65.4171 116.419 56.3357Z" fill="#F4F6F7"/>
<path d="M272.734 83.3648L198.271 361.265C197.748 363.215 195.907 364.513 193.966 364.515C193.599 364.492 193.232 364.468 192.884 364.375L191.491 364.001C189.123 363.367 187.765 360.913 188.381 358.614L262.844 80.7148C263.478 78.3467 265.932 76.9887 268.231 77.6046L269.624 77.9778C271.086 78.3698 272.204 79.4905 272.672 80.8101C272.903 81.6186 272.976 82.4594 272.734 83.3648Z" fill="#E3E5E8"/>
<path d="M272.734 83.3648L198.271 361.265C197.748 363.215 196.464 364.662 195.15 364.833C195.058 364.061 195.124 363.258 195.366 362.353L269.829 84.4529C270.352 82.5027 271.636 81.0551 272.95 80.8848C272.973 81.6373 272.976 82.4594 272.734 83.3648Z" fill="#C5D0D9"/>
<path d="M207.314 47.2478L167.265 36.5169C173.799 38.0436 180.522 39.6959 187.418 41.5435C194.225 43.442 200.962 45.3219 207.314 47.2478Z" fill="#E3E5E8"/>
<path d="M284.624 67.9631L280.408 82.5844C278.187 90.8726 233.125 86.0392 179.286 71.6132C125.447 57.1872 83.708 38.8368 85.9289 30.5486L85.6503 30.474L89.6067 15.7084L284.624 67.9631Z" fill="#A7B0B8"/>
<path d="M183.322 56.2718C237.213 70.7119 282.705 75.6823 284.931 67.3737C287.158 59.065 245.275 40.6235 191.384 26.1834C137.493 11.7434 92.0011 6.77293 89.7748 15.0816C87.5485 23.3903 129.431 41.8318 183.322 56.2718Z" fill="#E3E5E8"/>
<path d="M85.426 316.221C102.978 319.628 117.533 320.711 117.935 318.639C118.337 316.567 104.435 312.125 86.8824 308.718C69.3303 305.311 54.7755 304.229 54.3734 306.301C53.9712 308.372 67.8739 312.814 85.426 316.221Z" fill="#EA976B"/>
<path d="M117.304 306.276C113.857 310.503 109.336 316.234 103.66 324.044C99.6681 329.469 97.4439 332.755 92.8854 334.445C83.5917 337.927 76.8288 330.292 65.1164 328.87C63.022 328.608 61.0805 328.61 59.2409 328.789C54.2658 329.248 49.2001 327.816 45.2465 324.741C43.8311 323.615 42.5551 322.527 41.2281 321.35C35.424 315.987 31.2007 309.182 37.048 305.748C41.1986 303.351 54.7842 303.632 59.4307 306.072C79.4232 316.43 99.4306 314.476 106.304 311.39C108.683 310.311 115.22 305.419 116.891 305.867C117.012 305.973 117.132 306.08 117.304 306.276Z" fill="#EEB78B"/>
<path d="M178.391 337.947C177.239 337.788 176.106 337.559 175.043 337.349C149.511 332.896 132.561 326.787 125.78 322.283C123.116 320.524 122.487 318.414 121.624 317.735C121.554 317.716 121.554 317.716 121.503 317.628C123.508 314.881 177.049 337.662 178.391 337.947Z" fill="#EA976B"/>
<path d="M187.844 348.916C186.851 351.785 180.763 355.006 175.47 356.648C163.743 360.299 149.119 358.321 144.08 357.345C120.56 352.908 103.454 348.773 99.8319 347.802C88.3398 344.723 80.9856 342.081 66.24 336.935C63.2315 335.905 60.6048 334.007 58.0191 332.791C59.8213 332.752 61.6559 332.87 63.4531 333.128C68.8957 333.989 70.454 335.974 81.5369 339.466C91.0364 342.46 95.7666 340.965 106.682 345.084C139.185 357.227 152.306 353.95 168.416 355.952C171.017 356.276 179.233 352.356 168.279 346.435C154.205 338.782 108.881 334.924 116.969 306.41C116.988 306.341 117.007 306.271 117.025 306.201C117.095 306.22 117.076 306.29 117.146 306.308C117.948 307.494 118.06 311.256 120.546 314.236C126.821 321.74 143.945 331.106 170.966 336.406C172.099 336.635 173.302 336.882 174.523 337.06C183.017 338.515 189.517 344.064 187.844 348.916Z" fill="#E2783C"/>
<path d="M122.449 284.289C122.757 284.371 123.073 284.189 123.155 283.881C123.238 283.573 123.055 283.257 122.747 283.175C122.44 283.092 122.123 283.275 122.041 283.583C121.958 283.89 122.141 284.207 122.449 284.289Z" fill="#F19353"/>
<path d="M119.985 293.483C120.293 293.565 120.609 293.383 120.692 293.075C120.774 292.767 120.592 292.451 120.284 292.368C119.976 292.286 119.66 292.469 119.578 292.776C119.495 293.084 119.678 293.4 119.985 293.483Z" fill="#F19353"/>
<path d="M116.943 304.835C117.251 304.918 117.567 304.735 117.65 304.428C117.732 304.12 117.55 303.804 117.242 303.721C116.934 303.639 116.618 303.821 116.536 304.129C116.453 304.437 116.636 304.753 116.943 304.835Z" fill="#F19353"/>
<path d="M132.825 245.564C132.546 245.489 132.324 245.206 132.417 244.858L136.504 229.604C136.579 229.326 136.863 229.103 137.211 229.197C137.489 229.271 137.712 229.555 137.619 229.903L133.532 245.156C133.457 245.435 133.104 245.639 132.825 245.564Z" fill="#E2783C"/>
<path d="M130.063 255.872C129.784 255.798 129.562 255.514 129.655 255.166L131.932 246.669C132.007 246.39 132.29 246.167 132.638 246.261C132.917 246.335 133.14 246.619 133.046 246.967L130.77 255.464C130.695 255.743 130.342 255.947 130.063 255.872Z" fill="#E2783C"/>
<path d="M128.066 263.325C127.788 263.25 127.565 262.966 127.658 262.618L128.89 258.021C128.965 257.743 129.248 257.52 129.597 257.613C129.875 257.688 130.098 257.972 130.004 258.32L128.773 262.917C128.698 263.195 128.345 263.399 128.066 263.325Z" fill="#E2783C"/>
<path d="M125.883 271.474C125.604 271.399 125.382 271.115 125.475 270.767L126.333 267.563C126.408 267.285 126.692 267.062 127.04 267.155C127.318 267.23 127.541 267.514 127.448 267.862L126.589 271.066C126.515 271.344 126.161 271.548 125.883 271.474Z" fill="#E2783C"/>
<path d="M123.979 278.578C123.701 278.503 123.478 278.22 123.571 277.871L123.944 276.478C124.019 276.2 124.303 275.977 124.651 276.07C124.93 276.145 125.152 276.429 125.059 276.777L124.686 278.17C124.611 278.448 124.258 278.652 123.979 278.578Z" fill="#E2783C"/>
</g>
<defs>
<clipPath id="clip0_18_1447">
<rect width="202.329" height="361.9" fill="white" transform="translate(93.6665) rotate(15)"/>
</clipPath>
</defs>
</svg>
