<svg width="83" height="131" viewBox="0 0 83 131" fill="none" xmlns="http://www.w3.org/2000/svg">
<g clip-path="url(#clip0_18_1515)">
<g clip-path="url(#clip1_18_1515)">
<g clip-path="url(#clip2_18_1515)">
<path d="M55.7027 89.6651H27.7347C20.0392 89.6651 13.7068 83.4038 13.7068 75.6976V75.3473C13.7068 67.6849 19.9952 61.4235 27.6908 61.4235H55.7027C63.3983 61.4235 69.6867 67.6849 69.6867 75.3473V75.6976C69.7306 83.4038 63.4423 89.6651 55.7027 89.6651Z" fill="#874C2B"/>
<path d="M73.6445 80.6892L69.291 125.613C69.291 128.415 67.0043 130.692 64.2339 130.736C64.1899 130.736 64.1459 130.736 64.1019 130.736H18.5001C15.6417 130.736 13.3111 128.415 13.3111 125.613L10.5846 99.9548L8.51782 80.6892C8.51782 80.0324 8.64975 79.4194 8.86962 78.8064C9.61719 76.8799 11.5081 75.5225 13.7068 75.5225H68.4115C71.2698 75.5225 73.6445 77.8432 73.6445 80.6892Z" fill="#F9AA2A"/>
<path d="M73.6445 80.6892L69.291 125.613C69.291 128.415 67.0043 130.692 64.2339 130.736C64.3218 128.284 64.5417 125 64.9814 120.49C66.1054 108.18 64.2339 94.7289 49.7461 91.052C31.9443 87.5992 18.3127 89.079 10.5846 99.9548L8.51782 80.6892C8.51782 80.0324 8.64975 79.4194 8.86962 78.8064C13.6629 76.0042 20.6109 75.9604 36.7496 75.5225H68.4115C71.2698 75.5225 73.6445 77.8432 73.6445 80.6892Z" fill="#EC9509"/>
<path d="M79.6689 84.5428H3.68047C2.0534 84.5428 0.690186 83.2292 0.690186 81.5654V76.7928C0.690186 75.1727 2.00943 73.8154 3.68047 73.8154H79.7129C81.3399 73.8154 82.7031 75.1289 82.7031 76.7928V81.5654C82.6592 83.1854 81.2959 84.5428 79.6689 84.5428Z" fill="#E57710"/>
</g>
<path d="M37.639 55.5826C36.6705 51.4572 32.8261 46.3005 31.6304 45.8969C37.4417 45.8969 40.4042 57.8246 40.5537 62.1293H38.8497C38.8497 61.666 38.6076 59.7079 37.639 55.5826Z" fill="#31D0B3"/>
<g clip-path="url(#clip3_18_1515)">
<path d="M27.874 30.0249C32.9948 30.1056 37.0753 34.3296 36.9946 39.4504C36.9139 44.5712 32.6899 48.6518 27.5691 48.571C22.4482 48.4814 18.3677 44.2574 18.4484 39.1365C18.5381 34.0247 22.7532 29.9352 27.874 30.0249Z" fill="#E57710"/>
<path d="M27.0933 29.9336C32.223 29.9336 36.3753 34.0949 36.3753 39.2157C36.3753 44.3365 32.2141 48.4977 27.0933 48.4977C21.9724 48.4977 17.8022 44.3455 17.8022 39.2157C17.8022 34.0859 21.9635 29.9336 27.0933 29.9336Z" fill="#FFBB4C"/>
<path d="M27.0925 46.444C31.0549 46.444 34.267 43.2318 34.267 39.2695C34.267 35.3071 31.0549 32.0949 27.0925 32.0949C23.1301 32.0949 19.918 35.3071 19.918 39.2695C19.918 43.2318 23.1301 46.444 27.0925 46.444Z" fill="#FFEFD1"/>
<path d="M20.1959 39.2606C20.1959 35.3415 23.3348 32.1668 27.227 32.0861C27.1821 32.0861 27.1373 32.0861 27.0835 32.0861C23.1195 32.0861 19.9089 35.2967 19.9089 39.2606C19.9089 43.2246 23.1195 46.4352 27.0835 46.4352C27.1283 46.4352 27.1731 46.4352 27.227 46.4352C23.3348 46.3634 20.1959 43.1797 20.1959 39.2606Z" fill="#EC9509"/>
<path d="M29.8099 42.2291H26.4916C26.8504 41.7717 27.0297 41.2874 27.0297 40.5969C27.0297 40.3996 27.0118 40.2023 26.9849 40.014H28.8951V38.9916L28.653 38.6957H26.671C26.5813 38.3459 26.5096 37.9961 26.5096 37.6374C26.5096 36.7047 27.0208 36.1577 27.8817 36.1577C28.4108 36.1577 28.7965 36.4177 29.1372 36.8213L30.0251 35.9424L29.7829 35.6465C29.2269 34.9739 28.5095 34.5524 27.4961 34.5524C25.8549 34.5524 24.707 35.5927 24.707 37.2607C24.707 37.7271 24.8505 38.2024 25.0029 38.6777H24.8325L23.9178 38.7495V39.7091L24.1599 40.005H25.3527C25.3616 40.0947 25.3706 40.1844 25.3706 40.283C25.3706 41.3054 24.7877 42.1574 23.8909 42.5968V43.5833L24.133 43.8792H30.052V42.5161L29.8099 42.2291Z" fill="#EC9509"/>
<path d="M26.0522 42.2312V42.1774C26.5544 41.6393 26.7966 41.1191 26.7966 40.303C26.7966 40.1057 26.7786 39.9084 26.7517 39.7201H28.6619V38.6977H26.5185C26.402 38.2403 26.2854 37.8009 26.2854 37.3525C26.2854 36.4198 26.7966 35.8727 27.6575 35.8727C28.1866 35.8727 28.5722 36.1328 28.913 36.5364L29.8009 35.6575C29.2449 34.9849 28.5274 34.5634 27.514 34.5634C25.8728 34.5634 24.7249 35.6037 24.7249 37.2718C24.7249 37.7381 24.8684 38.2134 25.0209 38.6887H24.8505L23.9178 38.7515V39.7111H25.3078C25.3437 39.8994 25.3706 40.0878 25.3706 40.2761C25.3706 41.2985 24.7877 42.1504 23.8909 42.5899V43.5764H29.8099V42.2132H26.0522V42.2312Z" fill="#FFBB4C"/>
</g>
<path d="M47.9635 47.4879C50.3021 38.0969 53.6008 34.2304 54.9578 33.471C49.0028 32.63 44.3984 52.2678 42.8406 62.1918L44.5866 62.4384C44.7378 61.3678 45.6249 56.879 47.9635 47.4879Z" fill="#31D0B3"/>
<path d="M44.223 34.0817C45.6556 29.584 51.5179 22.7864 55.7993 18.3866C56.1659 18.0099 56.625 18.3922 56.3175 18.8185C52.651 23.9021 47.573 29.7737 45.8754 35.2639C44.2453 40.5356 43.4335 53.8522 42.3794 62.35C42.3497 62.5892 42.136 62.7579 41.8959 62.7364L40.8598 62.6439C40.6093 62.6216 40.4256 62.4033 40.4526 62.1533C41.2048 55.1811 42.432 39.704 44.223 34.0817Z" fill="#31D0B3"/>
<g clip-path="url(#clip4_18_1515)">
<path d="M56.3925 20.6983C61.5134 20.779 65.5939 25.003 65.5132 30.1238C65.4324 35.2446 61.2084 39.3251 56.0876 39.2444C50.9668 39.1547 46.8863 34.9307 46.967 29.8099C47.0567 24.6981 51.2717 20.6086 56.3925 20.6983Z" fill="#E57710"/>
<path d="M55.6118 20.6066C60.7416 20.6066 64.8939 24.7678 64.8939 29.8886C64.8939 35.0094 60.7326 39.1707 55.6118 39.1707C50.491 39.1707 46.3208 35.0184 46.3208 29.8886C46.3208 24.7588 50.482 20.6066 55.6118 20.6066Z" fill="#FFBB4C"/>
<path d="M55.6111 37.1174C59.5734 37.1174 62.7856 33.9052 62.7856 29.9428C62.7856 25.9804 59.5734 22.7683 55.6111 22.7683C51.6487 22.7683 48.4365 25.9804 48.4365 29.9428C48.4365 33.9052 51.6487 37.1174 55.6111 37.1174Z" fill="#FFEFD1"/>
<path d="M48.7145 29.9337C48.7145 26.0146 51.8533 22.8399 55.7455 22.7592C55.7007 22.7592 55.6558 22.7592 55.602 22.7592C51.6381 22.7592 48.4275 25.9698 48.4275 29.9337C48.4275 33.8976 51.6381 37.1082 55.602 37.1082C55.6469 37.1082 55.6917 37.1082 55.7455 37.1082C51.8533 37.0365 48.7145 33.8528 48.7145 29.9337Z" fill="#EC9509"/>
<path d="M58.3284 32.9025H55.0102C55.3689 32.4451 55.5483 31.9608 55.5483 31.2703C55.5483 31.073 55.5303 30.8757 55.5034 30.6873H57.4137V29.665L57.1715 29.369H55.1896C55.0999 29.0193 55.0281 28.6695 55.0281 28.3108C55.0281 27.3781 55.5393 26.831 56.4003 26.831C56.9294 26.831 57.315 27.0911 57.6558 27.4947L58.5436 26.6158L58.3015 26.3198C57.7455 25.6472 57.028 25.2257 56.0146 25.2257C54.3735 25.2257 53.2255 26.266 53.2255 27.9341C53.2255 28.4005 53.369 28.8758 53.5215 29.3511H53.3511L52.4363 29.4228V30.3824L52.6785 30.6784H53.8712C53.8802 30.7681 53.8892 30.8577 53.8892 30.9564C53.8892 31.9788 53.3062 32.8307 52.4094 33.2702V34.2567L52.6516 34.5526H58.5705V33.1895L58.3284 32.9025Z" fill="#EC9509"/>
<path d="M54.5708 32.9044V32.8506C55.073 32.3125 55.3151 31.7924 55.3151 30.9763C55.3151 30.779 55.2972 30.5817 55.2703 30.3933H57.1805V29.371H55.0371C54.9205 28.9136 54.8039 28.4742 54.8039 28.0257C54.8039 27.0931 55.3151 26.546 56.1761 26.546C56.7052 26.546 57.0908 26.8061 57.4316 27.2096L58.3194 26.3308C57.7634 25.6582 57.046 25.2366 56.0326 25.2366C54.3914 25.2366 53.2435 26.277 53.2435 27.945C53.2435 28.4114 53.387 28.8867 53.5394 29.362H53.369L52.4363 29.4248V30.3844H53.8264C53.8623 30.5727 53.8892 30.761 53.8892 30.9494C53.8892 31.9717 53.3062 32.8237 52.4094 33.2632V34.2497H58.3284V32.8865H54.5708V32.9044Z" fill="#FFBB4C"/>
</g>
<path d="M40.3574 32.9573C39.3619 27.244 33.7684 17.1678 30.8232 12.8943C33.2109 18.9687 38.1611 26.8245 39.3092 33.6873C40.2472 39.2945 39.0512 52.8692 39.3092 61.5914H41.4505C41.334 54.6701 41.4057 38.9732 40.3574 32.9573Z" fill="#31D0B3"/>
<g clip-path="url(#clip5_18_1515)">
<path d="M29.1296 0.878561C34.2504 0.959274 38.3309 5.18328 38.2502 10.3041C38.1695 15.4249 33.9455 19.5054 28.8247 19.4247C23.7039 19.335 19.6233 15.111 19.7041 9.99021C19.7937 4.87836 24.0088 0.788879 29.1296 0.878561Z" fill="#E57710"/>
<path d="M28.3491 0.787132C33.4789 0.787132 37.6312 4.94836 37.6312 10.0692C37.6312 15.19 33.4699 19.3512 28.3491 19.3512C23.2283 19.3512 19.0581 15.199 19.0581 10.0692C19.0581 4.93939 23.2193 0.787132 28.3491 0.787132Z" fill="#FFBB4C"/>
<path d="M28.3481 17.2977C32.3105 17.2977 35.5226 14.0855 35.5226 10.1231C35.5226 6.16075 32.3105 2.9486 28.3481 2.9486C24.3857 2.9486 21.1736 6.16075 21.1736 10.1231C21.1736 14.0855 24.3857 17.2977 28.3481 17.2977Z" fill="#FFEFD1"/>
<path d="M21.4515 10.114C21.4515 6.19492 24.5904 3.02019 28.4826 2.93948C28.4377 2.93948 28.3929 2.93948 28.3391 2.93948C24.3752 2.93948 21.1646 6.15008 21.1646 10.114C21.1646 14.0779 24.3752 17.2885 28.3391 17.2885C28.3839 17.2885 28.4288 17.2885 28.4826 17.2885C24.5904 17.2168 21.4515 14.0331 21.4515 10.114Z" fill="#EC9509"/>
<path d="M31.0657 13.0828H27.7475C28.1062 12.6254 28.2856 12.1411 28.2856 11.4506C28.2856 11.2533 28.2676 11.056 28.2407 10.8676H30.151V9.84527L29.9088 9.54932H27.9269C27.8372 9.19956 27.7654 8.8498 27.7654 8.49108C27.7654 7.55839 28.2766 7.01133 29.1376 7.01133C29.6667 7.01133 30.0523 7.27141 30.3931 7.67497L31.281 6.79609L31.0388 6.50014C30.4828 5.82753 29.7653 5.40603 28.7519 5.40603C27.1108 5.40603 25.9628 6.44633 25.9628 8.11441C25.9628 8.58076 26.1063 9.05607 26.2588 9.53138H26.0884L25.1736 9.60313V10.5627L25.4158 10.8587H26.6085C26.6175 10.9484 26.6265 11.038 26.6265 11.1367C26.6265 12.1591 26.0435 13.011 25.1467 13.4505V14.437L25.3889 14.7329H31.3079V13.3698L31.0657 13.0828Z" fill="#EC9509"/>
<path d="M27.3078 13.0849V13.0311C27.81 12.493 28.0522 11.9728 28.0522 11.1567C28.0522 10.9594 28.0342 10.7621 28.0073 10.5738H29.9175V9.55144H27.7742C27.6576 9.09406 27.541 8.65462 27.541 8.20621C27.541 7.27352 28.0522 6.72647 28.9131 6.72647C29.4422 6.72647 29.8279 6.98654 30.1687 7.39011L31.0565 6.51123C30.5005 5.83862 29.783 5.41711 28.7696 5.41711C27.1284 5.41711 25.9805 6.45742 25.9805 8.1255C25.9805 8.59184 26.124 9.06716 26.2765 9.54247H26.1061L25.1734 9.60525V10.5648H26.5635C26.5993 10.7532 26.6262 10.9415 26.6262 11.1298C26.6262 12.1522 26.0433 13.0042 25.1465 13.4436V14.4301H31.0655V13.067H27.3078V13.0849Z" fill="#FFBB4C"/>
</g>
<path d="M51.839 73.8778H31.6317C26.0716 73.8778 21.4963 71.0942 21.4963 67.6682V67.5125C21.4963 64.106 26.0398 61.3223 31.6 61.3223H51.839C57.3991 61.3223 61.9426 64.106 61.9426 67.5125V67.6682C61.9743 71.0942 57.4309 73.8778 51.839 73.8778Z" fill="#B25B20"/>
</g>
</g>
<defs>
<clipPath id="clip0_18_1515">
<rect width="82.2802" height="130.9" fill="white" transform="translate(0.690186)"/>
</clipPath>
<clipPath id="clip1_18_1515">
<rect width="82.2802" height="130.9" fill="white" transform="translate(0.690186)"/>
</clipPath>
<clipPath id="clip2_18_1515">
<rect width="81.969" height="87.4396" fill="white" transform="translate(0.690186 43.2962)"/>
</clipPath>
<clipPath id="clip3_18_1515">
<rect width="19.2815" height="18.6538" fill="white" transform="translate(17.7297 29.9337)"/>
</clipPath>
<clipPath id="clip4_18_1515">
<rect width="19.2815" height="18.6538" fill="white" transform="translate(46.2483 20.6065)"/>
</clipPath>
<clipPath id="clip5_18_1515">
<rect width="19.2815" height="18.6538" fill="white" transform="translate(18.9854 0.787048)"/>
</clipPath>
</defs>
</svg>
