<svg width="82" height="89" viewBox="0 0 82 89" fill="none" xmlns="http://www.w3.org/2000/svg">
<g clip-path="url(#clip0_18_1565)">
<path d="M30.2682 15.9285C30.2682 15.9285 29.7408 15.3132 32.1142 13.2914C34.4876 11.2697 34.971 9.68742 34.6634 8.72049C34.3557 7.75356 32.4658 5.38019 32.4658 5.38019C32.4658 5.38019 35.894 -0.904851 42.8383 3.79794C49.7826 8.50073 42.179 20.8511 42.179 20.8511L44.8601 21.2906C44.8601 21.2906 51.233 7.79751 44.2448 3.00682C37.2565 -1.78388 32.7295 1.86408 31.0154 4.23745C29.3013 6.61083 26.6203 11.0499 30.2682 15.9285Z" fill="#00BB9B"/>
<path d="M55.0128 47.1778H27.0598C19.3683 47.1778 13.0393 40.8927 13.0393 33.1573V32.8057C13.0393 25.1142 19.3243 18.8292 27.0158 18.8292H55.0128C62.7043 18.8292 68.9893 25.1142 68.9893 32.8057V33.1573C69.0333 40.8927 62.7482 47.1778 55.0128 47.1778Z" fill="#7C2B17"/>
<path d="M72.9449 38.1677L68.5937 83.2617C68.5937 86.0746 66.3083 88.3601 63.5393 88.404C63.4954 88.404 63.4514 88.404 63.4075 88.404H17.83C14.9731 88.404 12.6437 86.0746 12.6437 83.2617L9.91874 57.5062L7.85303 38.1677C7.85303 37.5084 7.98488 36.8931 8.20464 36.2778C8.95181 34.3439 10.8417 32.9814 13.0393 32.9814H67.7147C70.5716 32.9814 72.9449 35.3108 72.9449 38.1677Z" fill="#E2783C"/>
<path d="M72.9449 38.1677L68.5937 83.2617C68.5937 86.0746 66.3083 88.3601 63.5393 88.404C63.6272 85.9427 63.847 82.6464 64.2865 78.1194C65.0337 69.9005 65.4293 68.8896 64.726 66.9558C63.9789 64.8461 61.2099 59.6599 46.4862 56.6272C30.3561 53.3309 18.0058 56.3635 9.91874 57.5062L7.85303 38.1677C7.85303 37.5084 7.98488 36.8931 8.20464 36.2778C12.9953 33.4649 19.9396 33.4209 36.0698 32.9814H67.7147C70.5716 32.9814 72.9449 35.3108 72.9449 38.1677Z" fill="#C85A1F"/>
<path d="M78.9664 42.0356H3.01847C1.39228 42.0356 0.0297852 40.7171 0.0297852 39.0469V34.2562C0.0297852 32.63 1.34832 31.2675 3.01847 31.2675H79.0103C80.6365 31.2675 81.999 32.5861 81.999 34.2562V39.0469C81.955 40.6731 80.5926 42.0356 78.9664 42.0356Z" fill="#EA976B"/>
</g>
<defs>
<clipPath id="clip0_18_1565">
<rect width="81.9252" height="87.7708" fill="white" transform="translate(0.0297852 0.633301)"/>
</clipPath>
</defs>
</svg>
