<svg width="83" height="88" viewBox="0 0 83 88" fill="none" xmlns="http://www.w3.org/2000/svg">
<g clip-path="url(#clip0_18_1572)">
<path d="M27.8652 8.98751C27.8652 8.98751 28.3903 8.30528 30.7499 10.7414C33.1094 13.1776 34.7438 13.519 35.6495 13.0406C36.5552 12.5622 38.6029 10.0952 38.6029 10.0952C38.6029 10.0952 45.328 13.1689 41.7646 21.7019C38.2011 30.2349 24.8522 23.2073 24.8522 23.2073L24.8329 26.3196C24.8329 26.3196 39.1183 31.7941 42.7616 23.1994C46.4049 14.6047 42.1097 9.93039 39.5054 8.29177C36.9011 6.65315 32.1111 4.18635 27.8652 8.98751Z" fill="#00BB9B"/>
<path d="M59.1632 4.72689C59.1632 4.72689 58.6381 4.04466 56.2786 6.48083C53.919 8.91699 52.8361 7.84532 51.9305 7.36691C51.0248 6.88849 48.4256 5.8346 48.4256 5.8346C48.4256 5.8346 43.325 10.0559 46.8885 18.5889C50.4519 27.1219 51.379 27.3025 51.379 27.3025L50.2055 27.8306C50.2055 27.8306 46.6839 29.8241 43.0406 21.2294C39.3973 12.6347 44.9187 5.66977 47.5231 4.03115C50.1274 2.39253 54.9174 -0.0742672 59.1632 4.72689Z" fill="#00BB9B"/>
<path d="M55.2578 46.7011H27.4608C19.8122 46.7011 13.5186 40.4805 13.5186 32.8243V32.4763C13.5186 24.8636 19.7685 18.643 27.4171 18.643H55.2578C62.9064 18.643 69.1564 24.8636 69.1564 32.4763V32.8243C69.2001 40.4805 62.9501 46.7011 55.2578 46.7011Z" fill="#7C2B17"/>
<path d="M73.0897 37.7838L68.7628 82.4159C68.7628 85.1999 66.4901 87.462 63.7367 87.5055C63.6929 87.5055 63.6492 87.5055 63.6055 87.5055H18.2824C15.4415 87.5055 13.125 85.1999 13.125 82.4159L10.4153 56.9243L8.36108 37.7838C8.36108 37.1313 8.4922 36.5223 8.71073 35.9132C9.45374 33.9992 11.3331 32.6507 13.5184 32.6507H67.8887C70.7296 32.6507 73.0897 34.9562 73.0897 37.7838Z" fill="#E2783C"/>
<path d="M73.0897 37.7838L68.7628 82.4159C68.7628 85.1999 66.4901 87.462 63.7367 87.5055C63.8241 85.0694 64.0426 81.8069 64.4797 77.3262C65.2227 69.1916 65.616 68.191 64.9167 66.277C64.1737 64.1889 61.4202 59.0558 46.7787 56.0542C30.7386 52.7917 18.4572 55.7932 10.4153 56.9243L8.36108 37.7838C8.36108 37.1313 8.4922 36.5223 8.71073 35.9132C13.4747 33.1292 20.3802 33.0857 36.4204 32.6507H67.8887C70.7296 32.6507 73.0897 34.9562 73.0897 37.7838Z" fill="#C85A1F"/>
<path d="M79.0776 41.6119H3.55355C1.93643 41.6119 0.581543 40.3069 0.581543 38.6538V33.9122C0.581543 32.3027 1.89272 30.9541 3.55355 30.9541H79.1213C80.7384 30.9541 82.0933 32.2592 82.0933 33.9122V38.6538C82.0496 40.2634 80.6947 41.6119 79.0776 41.6119Z" fill="#EA976B"/>
</g>
<defs>
<clipPath id="clip0_18_1572">
<rect width="81.4681" height="86.8716" fill="white" transform="translate(0.581543 0.633301)"/>
</clipPath>
</defs>
</svg>
