<svg width="295" height="220" viewBox="0 0 295 220" fill="none" xmlns="http://www.w3.org/2000/svg">
<rect y="12.0006" width="32" height="32" rx="8" fill="#0000007d"/>
<path d="M23.5 30.5006V33.8339C23.5 34.276 23.3244 34.6999 23.0118 35.0125C22.6993 35.325 22.2754 35.5006 21.8333 35.5006H10.1667C9.72464 35.5006 9.30072 35.325 8.98816 35.0125C8.67559 34.6999 8.5 34.276 8.5 33.8339V30.5006" stroke="white" stroke-width="1.5" stroke-linecap="round" stroke-linejoin="round"/>
<path d="M20.1663 24.6673L15.9997 20.5006L11.833 24.6673" stroke="white" stroke-width="1.5" stroke-linecap="round" stroke-linejoin="round"/>
<path d="M16 20.5006V30.5006" stroke="white" stroke-width="1.5" stroke-linecap="round" stroke-linejoin="round"/>
<path d="M201.806 21.92H205.982V20.48H201.806V21.92ZM211.764 26.224C214.612 26.224 215.86 23.584 215.86 20.352C215.86 17.168 214.58 14.576 211.748 14.576C208.9 14.576 207.62 17.168 207.62 20.352C207.62 23.616 208.884 26.224 211.764 26.224ZM211.764 24.752C209.956 24.752 209.204 22.816 209.204 20.4C209.204 18.016 209.956 16.048 211.748 16.048C213.508 16.048 214.26 18.016 214.26 20.4C214.26 22.848 213.524 24.752 211.764 24.752ZM218.269 26.112C218.861 26.112 219.341 25.632 219.341 25.04C219.341 24.448 218.861 23.968 218.269 23.968C217.661 23.968 217.197 24.448 217.197 25.04C217.197 25.632 217.661 26.112 218.269 26.112ZM224.818 26.224C227.666 26.224 228.914 23.584 228.914 20.352C228.914 17.168 227.634 14.576 224.802 14.576C221.954 14.576 220.674 17.168 220.674 20.352C220.674 23.616 221.938 26.224 224.818 26.224ZM224.818 24.752C223.01 24.752 222.258 22.816 222.258 20.4C222.258 18.016 223.01 16.048 224.802 16.048C226.562 16.048 227.314 18.016 227.314 20.4C227.314 22.848 226.578 24.752 224.818 24.752ZM234.572 26.224C237.42 26.224 238.668 23.584 238.668 20.352C238.668 17.168 237.388 14.576 234.556 14.576C231.708 14.576 230.428 17.168 230.428 20.352C230.428 23.616 231.692 26.224 234.572 26.224ZM234.572 24.752C232.764 24.752 232.012 22.816 232.012 20.4C232.012 18.016 232.764 16.048 234.556 16.048C236.316 16.048 237.068 18.016 237.068 20.4C237.068 22.848 236.332 24.752 234.572 24.752ZM244.326 26.224C247.174 26.224 248.422 23.584 248.422 20.352C248.422 17.168 247.142 14.576 244.31 14.576C241.462 14.576 240.182 17.168 240.182 20.352C240.182 23.616 241.446 26.224 244.326 26.224ZM244.326 24.752C242.518 24.752 241.766 22.816 241.766 20.4C241.766 18.016 242.518 16.048 244.31 16.048C246.07 16.048 246.822 18.016 246.822 20.4C246.822 22.848 246.086 24.752 244.326 24.752ZM254.975 26H256.575V23.072H258.031V21.696H256.575V14.8H254.895L249.919 21.856V23.072H254.975V26ZM251.647 21.712L254.975 17.04V21.696L251.647 21.712ZM264.893 26H269.101C271.309 26 272.669 24.656 272.669 22.8C272.669 21.168 271.629 20.448 270.861 20.192V20.16C271.645 19.728 272.253 18.96 272.253 17.76C272.253 16.096 271.197 14.8 268.941 14.8H264.893V26ZM266.493 19.632V16.208H268.893C269.997 16.208 270.685 16.832 270.685 17.856C270.685 18.912 270.093 19.632 268.893 19.632H266.493ZM266.493 24.592V20.976H268.957C270.461 20.976 271.069 21.76 271.069 22.768C271.069 23.76 270.429 24.592 269.101 24.592H266.493ZM277.067 26H278.667V16.272H282.011V14.8H273.739V16.272H277.067V26ZM288.384 26.224C290.848 26.224 292.48 24.976 293.248 22.96L291.728 22.464C291.28 23.76 290.208 24.752 288.4 24.752C286.048 24.752 284.352 22.976 284.352 20.4C284.352 17.904 286.048 16.048 288.352 16.048C290.112 16.048 291.264 16.992 291.76 18.56L293.296 18.048C292.56 15.84 290.736 14.576 288.336 14.576C285.104 14.576 282.752 17.024 282.752 20.4C282.752 23.872 285.072 26.224 288.384 26.224Z" fill="currentColor"/>
<path d="M48.912 26.2086C51.184 26.2086 52.96 24.9286 52.96 22.9126C52.96 21.0086 51.728 20.0486 49.216 19.5366C47.552 19.2166 46.64 18.8486 46.64 17.7926C46.64 16.6246 47.584 16.0006 48.912 16.0006C50.304 16.0006 50.96 16.7846 51.264 18.0486L52.752 17.6166C52.272 15.7126 50.992 14.5606 48.912 14.5606C46.688 14.5606 45.04 15.8406 45.04 17.7926C45.04 19.7126 46.528 20.6246 48.944 21.0566C51.056 21.4566 51.36 22.1606 51.36 22.9126C51.36 24.1606 50.304 24.7686 48.912 24.7686C47.376 24.7686 46.56 24.0326 46.176 22.5766L44.672 23.0086C45.216 25.1366 46.72 26.2086 48.912 26.2086ZM61.977 22.5286V21.9046C61.977 19.4886 60.505 17.8726 58.249 17.8726C55.993 17.8726 54.297 19.6966 54.297 22.0326C54.297 24.4006 55.929 26.2246 58.265 26.2246C60.185 26.2246 61.337 25.1846 61.769 23.9686L60.425 23.5366C60.201 24.2086 59.449 24.9126 58.265 24.9126C56.857 24.9126 55.897 23.8086 55.817 22.5286H61.977ZM60.569 21.2966H55.833C56.009 20.1766 56.857 19.1846 58.265 19.1846C59.673 19.1846 60.489 20.2406 60.569 21.2966ZM63.6963 26.0006H65.2643V14.8006H63.6963V26.0006ZM67.3369 26.0006H68.9049V14.8006H67.3369V26.0006Z" fill="currentColor"/>
<path d="M48.404 44.2051H49.34V41.9371H50.54V41.1211H49.34V35.8051H48.368L44.576 41.1931V41.9371H48.404V44.2051ZM45.572 41.1331L48.404 37.1371V41.1211L45.572 41.1331ZM52.5273 40.6411C52.9233 40.6411 53.2353 40.3291 53.2353 39.9331C53.2353 39.5491 52.9233 39.2371 52.5273 39.2371C52.1313 39.2371 51.8313 39.5491 51.8313 39.9331C51.8313 40.3291 52.1313 40.6411 52.5273 40.6411ZM52.5273 44.2891C52.9233 44.2891 53.2353 43.9771 53.2353 43.5931C53.2353 43.1971 52.9233 42.8851 52.5273 42.8851C52.1313 42.8851 51.8313 43.1971 51.8313 43.5931C51.8313 43.9771 52.1313 44.2891 52.5273 44.2891ZM58.2707 44.2051H59.2067V41.9371H60.4067V41.1211H59.2067V35.8051H58.2347L54.4427 41.1931V41.9371H58.2707V44.2051ZM55.4387 41.1331L58.2707 37.1371V41.1211L55.4387 41.1331ZM65.706 44.2051H66.642V41.9371H67.842V41.1211H66.642V35.8051H65.67L61.878 41.1931V41.9371H65.706V44.2051ZM62.874 41.1331L65.706 37.1371V41.1211L62.874 41.1331ZM72.5533 38.1691C71.5213 38.1691 70.8493 38.6491 70.4653 39.2011L70.3453 38.3251H69.5773V46.7251H70.4893V43.3531C70.9213 43.9411 71.5933 44.3731 72.5533 44.3731C74.4373 44.3731 75.3493 42.8011 75.3493 41.2771C75.3493 39.7651 74.3293 38.1691 72.5533 38.1691ZM72.4573 38.9851C73.6333 38.9851 74.4373 39.9571 74.4373 41.2771C74.4373 42.6091 73.6333 43.5571 72.4573 43.5571C71.2693 43.5571 70.4773 42.6091 70.4773 41.2771C70.4773 39.9571 71.2693 38.9851 72.4573 38.9851ZM76.9775 44.2051H77.8895V40.8691C77.8895 39.6451 78.6575 39.0091 79.4735 39.0091C80.1695 39.0091 80.7695 39.3571 80.7695 40.6051V44.2051H81.6815V40.8691C81.6815 39.6571 82.4255 39.0091 83.2535 39.0091C84.0095 39.0091 84.5615 39.3571 84.5615 40.6051V44.2051H85.4735V40.2571C85.4735 38.7931 84.5855 38.1571 83.5415 38.1571C82.6175 38.1571 81.9455 38.5531 81.4895 39.1771C81.2135 38.5651 80.6255 38.1571 79.7855 38.1571C78.9575 38.1571 78.3215 38.4931 77.8655 39.1291L77.7455 38.3251H76.9775V44.2051Z" fill="#5B5B5B"/>
<rect y="72.0006" width="32" height="32" rx="8" fill="#0000007d"/>
<path d="M23.5 90.5006V93.8339C23.5 94.276 23.3244 94.6999 23.0118 95.0125C22.6993 95.325 22.2754 95.5006 21.8333 95.5006H10.1667C9.72464 95.5006 9.30072 95.325 8.98816 95.0125C8.67559 94.6999 8.5 94.276 8.5 93.8339V90.5006" stroke="white" stroke-width="1.5" stroke-linecap="round" stroke-linejoin="round"/>
<path d="M11.8332 86.3339L15.9998 90.5006L20.1665 86.3339" stroke="white" stroke-width="1.5" stroke-linecap="round" stroke-linejoin="round"/>
<path d="M15.9995 90.5006L15.9995 80.5006" stroke="white" stroke-width="1.5" stroke-linecap="round" stroke-linejoin="round"/>
<path d="M191.504 84.4H192.976V81.12H196.24V79.68H192.976V76.4H191.504V79.68H188.24V81.12H191.504V84.4ZM202.01 86.224C204.858 86.224 206.106 83.584 206.106 80.352C206.106 77.168 204.826 74.576 201.994 74.576C199.146 74.576 197.866 77.168 197.866 80.352C197.866 83.616 199.13 86.224 202.01 86.224ZM202.01 84.752C200.202 84.752 199.45 82.816 199.45 80.4C199.45 78.016 200.202 76.048 201.994 76.048C203.754 76.048 204.506 78.016 204.506 80.4C204.506 82.848 203.77 84.752 202.01 84.752ZM208.516 86.112C209.108 86.112 209.588 85.632 209.588 85.04C209.588 84.448 209.108 83.968 208.516 83.968C207.908 83.968 207.444 84.448 207.444 85.04C207.444 85.632 207.908 86.112 208.516 86.112ZM215.064 86.224C217.912 86.224 219.16 83.584 219.16 80.352C219.16 77.168 217.88 74.576 215.048 74.576C212.2 74.576 210.92 77.168 210.92 80.352C210.92 83.616 212.184 86.224 215.064 86.224ZM215.064 84.752C213.256 84.752 212.504 82.816 212.504 80.4C212.504 78.016 213.256 76.048 215.048 76.048C216.808 76.048 217.56 78.016 217.56 80.4C217.56 82.848 216.824 84.752 215.064 84.752ZM224.818 86.224C227.666 86.224 228.914 83.584 228.914 80.352C228.914 77.168 227.634 74.576 224.802 74.576C221.954 74.576 220.674 77.168 220.674 80.352C220.674 83.616 221.938 86.224 224.818 86.224ZM224.818 84.752C223.01 84.752 222.258 82.816 222.258 80.4C222.258 78.016 223.01 76.048 224.802 76.048C226.562 76.048 227.314 78.016 227.314 80.4C227.314 82.848 226.578 84.752 224.818 84.752ZM234.572 86.224C237.42 86.224 238.668 83.584 238.668 80.352C238.668 77.168 237.388 74.576 234.556 74.576C231.708 74.576 230.428 77.168 230.428 80.352C230.428 83.616 231.692 86.224 234.572 86.224ZM234.572 84.752C232.764 84.752 232.012 82.816 232.012 80.4C232.012 78.016 232.764 76.048 234.556 76.048C236.316 76.048 237.068 78.016 237.068 80.4C237.068 82.848 236.332 84.752 234.572 84.752ZM245.126 84.528V74.8H243.526C242.854 75.264 241.91 75.68 241.206 75.808V77.376C241.894 77.28 242.934 76.944 243.526 76.56V84.528H240.71V86H247.91V84.528H245.126ZM254.879 84.528V74.8H253.279C252.607 75.264 251.663 75.68 250.959 75.808V77.376C251.647 77.28 252.687 76.944 253.279 76.56V84.528H250.463V86H257.663V84.528H254.879ZM264.893 86H269.101C271.309 86 272.669 84.656 272.669 82.8C272.669 81.168 271.629 80.448 270.861 80.192V80.16C271.645 79.728 272.253 78.96 272.253 77.76C272.253 76.096 271.197 74.8 268.941 74.8H264.893V86ZM266.493 79.632V76.208H268.893C269.997 76.208 270.685 76.832 270.685 77.856C270.685 78.912 270.093 79.632 268.893 79.632H266.493ZM266.493 84.592V80.976H268.957C270.461 80.976 271.069 81.76 271.069 82.768C271.069 83.76 270.429 84.592 269.101 84.592H266.493ZM277.067 86H278.667V76.272H282.011V74.8H273.739V76.272H277.067V86ZM288.384 86.224C290.848 86.224 292.48 84.976 293.248 82.96L291.728 82.464C291.28 83.76 290.208 84.752 288.4 84.752C286.048 84.752 284.352 82.976 284.352 80.4C284.352 77.904 286.048 76.048 288.352 76.048C290.112 76.048 291.264 76.992 291.76 78.56L293.296 78.048C292.56 75.84 290.736 74.576 288.336 74.576C285.104 74.576 282.752 77.024 282.752 80.4C282.752 83.872 285.072 86.224 288.384 86.224Z" fill="#01FD93"/>
<path d="M45.296 86.0006H49.472C51.648 86.0006 52.88 84.5926 52.88 82.8326C52.88 81.1526 51.808 80.4486 51.088 80.1926V80.1606C51.872 79.7126 52.448 78.8966 52.448 77.7446C52.448 76.1286 51.456 74.8006 49.264 74.8006H45.296V86.0006ZM46.544 79.7606V75.9046H49.232C50.448 75.9046 51.216 76.6246 51.216 77.7606C51.216 78.9446 50.544 79.7606 49.232 79.7606H46.544ZM46.544 84.8966V80.8326H49.264C50.944 80.8326 51.632 81.7286 51.632 82.8326C51.632 83.9526 50.912 84.8966 49.488 84.8966H46.544ZM61.3355 78.1606H60.1195V82.6246C60.1195 84.1766 59.0155 85.0886 57.8795 85.0886C56.8555 85.0886 56.0235 84.6726 56.0235 83.0086V78.1606H54.8075V83.2966C54.8075 85.3446 55.9595 86.2246 57.4955 86.2246C58.6155 86.2246 59.4955 85.7926 60.1195 84.9446L60.3115 86.0006H61.3355V78.1606ZM69.1251 78.1606V82.4326C69.1251 84.0006 68.0531 84.9126 66.7571 84.9126C65.6371 84.9126 64.8051 84.4326 64.8051 82.7686V78.1606H63.5891V83.1686C63.5891 85.2166 64.9811 86.0486 66.4051 86.0486C67.7011 86.0486 68.4371 85.6326 69.1091 84.7846L69.1251 84.8646V86.0486C69.1251 87.4886 68.4371 88.4646 66.9011 88.4646C65.6531 88.4646 64.9971 87.8566 64.7411 86.7846L63.5731 87.0566C63.9731 88.5126 64.9971 89.5526 66.9011 89.5526C69.4451 89.5526 70.3411 87.7446 70.3411 86.0166V78.1606H69.1251Z" fill="currentColor"/>
<path d="M45.032 106.205H50.432V105.353H46.316L48.452 103.445C49.46 102.557 50.42 101.717 50.42 100.205C50.42 98.7291 49.28 97.6371 47.672 97.6371C46.232 97.6371 44.936 98.6091 44.876 100.181L45.74 100.433C45.752 99.2211 46.652 98.4891 47.672 98.4891C48.752 98.4891 49.484 99.2331 49.484 100.205C49.484 101.429 48.632 102.125 47.804 102.869L45.032 105.341V106.205ZM52.5273 102.641C52.9233 102.641 53.2353 102.329 53.2353 101.933C53.2353 101.549 52.9233 101.237 52.5273 101.237C52.1313 101.237 51.8313 101.549 51.8313 101.933C51.8313 102.329 52.1313 102.641 52.5273 102.641ZM52.5273 106.289C52.9233 106.289 53.2353 105.977 53.2353 105.593C53.2353 105.197 52.9233 104.885 52.5273 104.885C52.1313 104.885 51.8313 105.197 51.8313 105.593C51.8313 105.977 52.1313 106.289 52.5273 106.289ZM58.2707 106.205H59.2067V103.937H60.4067V103.121H59.2067V97.8051H58.2347L54.4427 103.193V103.937H58.2707V106.205ZM55.4387 103.133L58.2707 99.1371V103.121L55.4387 103.133ZM62.334 106.205H67.734V105.353H63.618L65.754 103.445C66.762 102.557 67.722 101.717 67.722 100.205C67.722 98.7291 66.582 97.6371 64.974 97.6371C63.534 97.6371 62.238 98.6091 62.178 100.181L63.042 100.433C63.054 99.2211 63.954 98.4891 64.974 98.4891C66.054 98.4891 66.786 99.2331 66.786 100.205C66.786 101.429 65.934 102.125 65.106 102.869L62.334 105.341V106.205ZM72.5533 100.169C71.5213 100.169 70.8493 100.649 70.4653 101.201L70.3453 100.325H69.5773V108.725H70.4893V105.353C70.9213 105.941 71.5933 106.373 72.5533 106.373C74.4373 106.373 75.3493 104.801 75.3493 103.277C75.3493 101.765 74.3293 100.169 72.5533 100.169ZM72.4573 100.985C73.6333 100.985 74.4373 101.957 74.4373 103.277C74.4373 104.609 73.6333 105.557 72.4573 105.557C71.2693 105.557 70.4773 104.609 70.4773 103.277C70.4773 101.957 71.2693 100.985 72.4573 100.985ZM76.9775 106.205H77.8895V102.869C77.8895 101.645 78.6575 101.009 79.4735 101.009C80.1695 101.009 80.7695 101.357 80.7695 102.605V106.205H81.6815V102.869C81.6815 101.657 82.4255 101.009 83.2535 101.009C84.0095 101.009 84.5615 101.357 84.5615 102.605V106.205H85.4735V102.257C85.4735 100.793 84.5855 100.157 83.5415 100.157C82.6175 100.157 81.9455 100.553 81.4895 101.177C81.2135 100.565 80.6255 100.157 79.7855 100.157C78.9575 100.157 78.3215 100.493 77.8655 101.129L77.7455 100.325H76.9775V106.205Z" fill="#5B5B5B"/>
<rect y="132.206" width="32" height="32" rx="8" fill="#0000007d"/>
<path d="M23.5 150.501V153.834C23.5 154.276 23.3244 154.7 23.0118 155.012C22.6993 155.325 22.2754 155.501 21.8333 155.501H10.1667C9.72464 155.501 9.30072 155.325 8.98816 155.012C8.67559 154.7 8.5 154.276 8.5 153.834V150.501" stroke="white" stroke-width="1.5" stroke-linecap="round" stroke-linejoin="round"/>
<path d="M20.1663 144.667L15.9997 140.501L11.833 144.667" stroke="white" stroke-width="1.5" stroke-linecap="round" stroke-linejoin="round"/>
<path d="M16 140.501V150.501" stroke="white" stroke-width="1.5" stroke-linecap="round" stroke-linejoin="round"/>
<path d="M172.736 146.224C175.584 146.224 176.832 143.584 176.832 140.352C176.832 137.168 175.552 134.576 172.72 134.576C169.872 134.576 168.592 137.168 168.592 140.352C168.592 143.616 169.856 146.224 172.736 146.224ZM172.736 144.752C170.928 144.752 170.176 142.816 170.176 140.4C170.176 138.016 170.928 136.048 172.72 136.048C174.48 136.048 175.232 138.016 175.232 140.4C175.232 142.848 174.496 144.752 172.736 144.752ZM179.242 146.112C179.834 146.112 180.314 145.632 180.314 145.04C180.314 144.448 179.834 143.968 179.242 143.968C178.634 143.968 178.17 144.448 178.17 145.04C178.17 145.632 178.634 146.112 179.242 146.112ZM185.79 146.224C188.638 146.224 189.886 143.584 189.886 140.352C189.886 137.168 188.606 134.576 185.774 134.576C182.926 134.576 181.646 137.168 181.646 140.352C181.646 143.616 182.91 146.224 185.79 146.224ZM185.79 144.752C183.982 144.752 183.23 142.816 183.23 140.4C183.23 138.016 183.982 136.048 185.774 136.048C187.534 136.048 188.286 138.016 188.286 140.4C188.286 142.848 187.55 144.752 185.79 144.752ZM195.544 146.224C198.392 146.224 199.64 143.584 199.64 140.352C199.64 137.168 198.36 134.576 195.528 134.576C192.68 134.576 191.4 137.168 191.4 140.352C191.4 143.616 192.664 146.224 195.544 146.224ZM195.544 144.752C193.736 144.752 192.984 142.816 192.984 140.4C192.984 138.016 193.736 136.048 195.528 136.048C197.288 136.048 198.04 138.016 198.04 140.4C198.04 142.848 197.304 144.752 195.544 144.752ZM205.298 146.224C208.146 146.224 209.394 143.584 209.394 140.352C209.394 137.168 208.114 134.576 205.282 134.576C202.434 134.576 201.154 137.168 201.154 140.352C201.154 143.616 202.418 146.224 205.298 146.224ZM205.298 144.752C203.49 144.752 202.738 142.816 202.738 140.4C202.738 138.016 203.49 136.048 205.282 136.048C207.042 136.048 207.794 138.016 207.794 140.4C207.794 142.848 207.058 144.752 205.298 144.752ZM217.34 139.952C218.028 139.424 218.444 138.64 218.444 137.696C218.444 135.872 216.972 134.592 215.02 134.592C213.052 134.592 211.596 135.872 211.596 137.696C211.596 138.64 212.012 139.424 212.7 139.952C211.724 140.544 211.132 141.52 211.132 142.736C211.132 144.816 212.748 146.24 215.02 146.24C217.244 146.24 218.892 144.816 218.892 142.736C218.892 141.52 218.3 140.528 217.34 139.952ZM213.164 137.664C213.164 136.608 213.98 135.968 215.02 135.968C216.044 135.968 216.876 136.608 216.876 137.664C216.876 138.72 216.028 139.344 215.02 139.344C213.98 139.344 213.164 138.72 213.164 137.664ZM215.02 144.8C213.804 144.8 212.732 144.016 212.732 142.736C212.732 141.424 213.804 140.656 215.02 140.656C216.252 140.656 217.292 141.424 217.292 142.736C217.292 144.016 216.252 144.8 215.02 144.8ZM221.285 146H228.629V144.528H223.541L226.149 142.224C227.477 141.072 228.613 139.968 228.613 138.064C228.613 136.048 227.013 134.576 224.869 134.576C222.869 134.576 221.173 135.904 221.077 138L222.565 138.432C222.565 136.96 223.589 136.048 224.869 136.048C226.149 136.048 227.013 136.944 227.013 138.08C227.013 139.456 226.117 140.256 225.029 141.216L221.285 144.512V146ZM234.527 146.224C236.863 146.224 238.527 144.608 238.527 142.48C238.527 140.336 237.167 139.024 235.263 138.912L237.791 136.272V134.8H231.007V136.272H235.887L232.895 139.328L233.711 140.32C233.999 140.224 234.271 140.192 234.527 140.192C236.015 140.192 236.927 141.168 236.927 142.48C236.927 143.776 235.951 144.752 234.527 144.752C233.183 144.752 232.191 143.76 232.127 142.528L230.655 142.96C230.719 144.72 232.271 146.224 234.527 146.224ZM240.793 146H248.137V144.528H243.049L245.657 142.224C246.985 141.072 248.121 139.968 248.121 138.064C248.121 136.048 246.521 134.576 244.377 134.576C242.377 134.576 240.681 135.904 240.585 138L242.073 138.432C242.073 136.96 243.097 136.048 244.377 136.048C245.657 136.048 246.521 136.944 246.521 138.08C246.521 139.456 245.625 140.256 244.537 141.216L240.793 144.512V146ZM254.867 144.528V134.8H253.267C252.595 135.264 251.651 135.68 250.947 135.808V137.376C251.635 137.28 252.675 136.944 253.267 136.56V144.528H250.451V146H257.651V144.528H254.867ZM264.881 146H269.089C271.297 146 272.657 144.656 272.657 142.8C272.657 141.168 271.617 140.448 270.849 140.192V140.16C271.633 139.728 272.241 138.96 272.241 137.76C272.241 136.096 271.185 134.8 268.929 134.8H264.881V146ZM266.481 139.632V136.208H268.881C269.985 136.208 270.673 136.832 270.673 137.856C270.673 138.912 270.081 139.632 268.881 139.632H266.481ZM266.481 144.592V140.976H268.945C270.449 140.976 271.057 141.76 271.057 142.768C271.057 143.76 270.417 144.592 269.089 144.592H266.481ZM277.054 146H278.654V136.272H281.998V134.8H273.726V136.272H277.054V146ZM288.371 146.224C290.835 146.224 292.467 144.976 293.235 142.96L291.715 142.464C291.267 143.76 290.195 144.752 288.387 144.752C286.035 144.752 284.339 142.976 284.339 140.4C284.339 137.904 286.035 136.048 288.339 136.048C290.099 136.048 291.251 136.992 291.747 138.56L293.283 138.048C292.547 135.84 290.723 134.576 288.323 134.576C285.091 134.576 282.739 137.024 282.739 140.4C282.739 143.872 285.059 146.224 288.371 146.224Z" fill="currentColor"/>
<path d="M48.944 146.209C51.168 146.209 52.912 144.961 52.912 142.993C52.912 141.089 51.648 140.177 49.216 139.697C47.392 139.345 46.384 138.929 46.384 137.713C46.384 136.417 47.44 135.681 48.928 135.681C50.496 135.681 51.232 136.609 51.552 137.969L52.72 137.633C52.224 135.729 51.024 134.561 48.928 134.561C46.832 134.561 45.136 135.745 45.136 137.713C45.136 139.649 46.72 140.481 48.992 140.897C51.488 141.361 51.664 142.241 51.664 142.993C51.664 144.401 50.464 145.089 48.944 145.089C47.264 145.089 46.32 144.289 45.904 142.657L44.736 142.993C45.296 145.169 46.768 146.209 48.944 146.209ZM61.9446 142.417V141.889C61.9446 139.489 60.4566 137.953 58.2646 137.937C56.0246 137.937 54.3766 139.825 54.3766 142.081C54.3766 144.353 55.8806 146.225 58.2806 146.225C60.1686 146.225 61.3206 145.153 61.7206 144.001L60.6486 143.665C60.3926 144.465 59.5286 145.185 58.2806 145.185C56.7126 145.185 55.6406 143.969 55.5766 142.417H61.9446ZM60.8086 141.409H55.5926C55.7846 140.081 56.7286 138.977 58.2806 138.977C59.7046 138.977 60.7126 140.049 60.8086 141.409ZM63.8075 146.001H65.0235V134.801H63.8075V146.001ZM67.2606 146.001H68.4766V134.801H67.2606V146.001Z" fill="currentColor"/>
<path d="M47.564 157.637C45.884 157.637 44.66 158.765 44.66 160.445C44.66 162.137 45.896 163.229 47.516 163.229C48.476 163.229 49.22 162.713 49.544 162.281C49.472 164.153 49.088 165.521 47.468 165.521C46.424 165.521 45.944 164.825 45.74 164.081L44.9 164.345C45.236 165.485 46.004 166.373 47.468 166.373C49.796 166.373 50.528 164.417 50.528 161.477C50.528 159.005 49.484 157.637 47.564 157.637ZM47.564 158.489C48.728 158.489 49.496 159.377 49.496 160.445C49.496 161.585 48.668 162.389 47.564 162.389C46.388 162.389 45.596 161.621 45.596 160.445C45.596 159.281 46.388 158.489 47.564 158.489ZM52.5273 162.641C52.9233 162.641 53.2353 162.329 53.2353 161.933C53.2353 161.549 52.9233 161.237 52.5273 161.237C52.1313 161.237 51.8313 161.549 51.8313 161.933C51.8313 162.329 52.1313 162.641 52.5273 162.641ZM52.5273 166.289C52.9233 166.289 53.2353 165.977 53.2353 165.593C53.2353 165.197 52.9233 164.885 52.5273 164.885C52.1313 164.885 51.8313 165.197 51.8313 165.593C51.8313 165.977 52.1313 166.289 52.5273 166.289ZM57.4787 166.373C59.6147 166.373 60.5027 164.381 60.5027 161.969C60.5027 159.617 59.5787 157.637 57.4787 157.637C55.3427 157.637 54.4187 159.617 54.4187 161.969C54.4187 164.381 55.3307 166.373 57.4787 166.373ZM57.4787 165.521C55.9667 165.521 55.3427 163.877 55.3427 162.005C55.3427 160.145 55.9787 158.489 57.4787 158.489C58.9547 158.489 59.5667 160.145 59.5667 162.005C59.5667 163.925 58.9667 165.521 57.4787 165.521ZM62.334 166.205H67.734V165.353H63.618L65.754 163.445C66.762 162.557 67.722 161.717 67.722 160.205C67.722 158.729 66.582 157.637 64.974 157.637C63.534 157.637 62.238 158.609 62.178 160.181L63.042 160.433C63.054 159.221 63.954 158.489 64.974 158.489C66.054 158.489 66.786 159.233 66.786 160.205C66.786 161.429 65.934 162.125 65.106 162.869L62.334 165.341V166.205ZM71.3653 166.373C72.3013 166.373 72.8653 166.049 73.1893 165.593L73.2973 166.205H74.0653V162.269C74.0653 160.889 73.1533 160.157 71.7133 160.157C70.4413 160.157 69.6493 160.805 69.4213 161.921L70.2493 162.137C70.3453 161.441 70.7293 160.925 71.7133 160.925C72.6853 160.925 73.1533 161.405 73.1533 162.281V162.473L71.5813 162.701C69.9733 162.929 69.3253 163.565 69.3253 164.597C69.3253 165.533 70.0093 166.373 71.3653 166.373ZM71.5573 165.581C70.7293 165.581 70.2133 165.185 70.2133 164.549C70.2133 163.829 70.8013 163.565 71.6893 163.433L73.1533 163.217V164.081C73.1533 165.137 72.3733 165.581 71.5573 165.581ZM75.8642 166.205H76.7762V162.869C76.7762 161.645 77.5442 161.009 78.3602 161.009C79.0562 161.009 79.6562 161.357 79.6562 162.605V166.205H80.5682V162.869C80.5682 161.657 81.3122 161.009 82.1402 161.009C82.8962 161.009 83.4482 161.357 83.4482 162.605V166.205H84.3602V162.257C84.3602 160.793 83.4722 160.157 82.4282 160.157C81.5042 160.157 80.8322 160.553 80.3762 161.177C80.1002 160.565 79.5122 160.157 78.6722 160.157C77.8442 160.157 77.2082 160.493 76.7522 161.129L76.6322 160.325H75.8642V166.205Z" fill="#5B5B5B"/>
<path d="M4.298 213.182C3.32733 213.182 2.52467 212.949 1.89 212.482C1.25533 212.006 0.821333 211.306 0.588 210.382L1.904 210.004C2.072 210.657 2.34733 211.143 2.73 211.46C3.11267 211.768 3.63533 211.922 4.298 211.922C4.93267 211.922 5.446 211.782 5.838 211.502C6.23933 211.222 6.44 210.821 6.44 210.298C6.44 209.906 6.29533 209.579 6.006 209.318C5.726 209.047 5.166 208.833 4.326 208.674C3.206 208.478 2.35667 208.156 1.778 207.708C1.19933 207.251 0.91 206.621 0.91 205.818C0.91 205.258 1.05467 204.763 1.344 204.334C1.64267 203.905 2.04867 203.573 2.562 203.34C3.07533 203.107 3.654 202.99 4.298 202.99C5.194 202.99 5.922 203.223 6.482 203.69C7.05133 204.157 7.44333 204.815 7.658 205.664L6.356 206.042C6.216 205.454 5.98267 205.011 5.656 204.712C5.32933 204.404 4.87667 204.25 4.298 204.25C3.70067 204.25 3.22 204.39 2.856 204.67C2.492 204.941 2.31 205.323 2.31 205.818C2.31 206.257 2.48733 206.583 2.842 206.798C3.19667 207.013 3.77067 207.195 4.564 207.344C5.684 207.577 6.51 207.927 7.042 208.394C7.574 208.851 7.84 209.486 7.84 210.298C7.84 210.877 7.68133 211.385 7.364 211.824C7.056 212.253 6.63133 212.589 6.09 212.832C5.558 213.065 4.96067 213.182 4.298 213.182ZM10.3399 209.962C10.3679 210.335 10.4705 210.681 10.6479 210.998C10.8345 211.315 11.0865 211.572 11.4039 211.768C11.7212 211.955 12.0805 212.048 12.4819 212.048C12.9672 212.048 13.3732 211.931 13.6999 211.698C14.0359 211.455 14.2599 211.171 14.3719 210.844L15.5479 211.222C15.3425 211.801 14.9785 212.277 14.4559 212.65C13.9332 213.014 13.2752 213.196 12.4819 213.196C11.8099 213.196 11.2079 213.037 10.6759 212.72C10.1532 212.393 9.74254 211.95 9.44387 211.39C9.15454 210.83 9.00987 210.209 9.00987 209.528C9.00987 208.856 9.15921 208.245 9.45787 207.694C9.76587 207.134 10.1812 206.695 10.7039 206.378C11.2359 206.051 11.8239 205.888 12.4679 205.888C13.1212 205.888 13.6905 206.037 14.1759 206.336C14.6705 206.625 15.0532 207.036 15.3239 207.568C15.5945 208.1 15.7299 208.716 15.7299 209.416V209.962H10.3399ZM14.4979 208.884C14.4605 208.389 14.2599 207.96 13.8959 207.596C13.5412 207.223 13.0699 207.036 12.4819 207.036C11.8939 207.036 11.4132 207.213 11.0399 207.568C10.6665 207.923 10.4379 208.361 10.3539 208.884H14.4979ZM18.2422 209.962C18.2702 210.335 18.3729 210.681 18.5502 210.998C18.7369 211.315 18.9889 211.572 19.3062 211.768C19.6236 211.955 19.9829 212.048 20.3842 212.048C20.8696 212.048 21.2755 211.931 21.6022 211.698C21.9382 211.455 22.1622 211.171 22.2742 210.844L23.4502 211.222C23.2449 211.801 22.8809 212.277 22.3582 212.65C21.8356 213.014 21.1776 213.196 20.3842 213.196C19.7122 213.196 19.1102 213.037 18.5782 212.72C18.0556 212.393 17.6449 211.95 17.3462 211.39C17.0569 210.83 16.9122 210.209 16.9122 209.528C16.9122 208.856 17.0616 208.245 17.3602 207.694C17.6682 207.134 18.0836 206.695 18.6062 206.378C19.1382 206.051 19.7262 205.888 20.3702 205.888C21.0236 205.888 21.5929 206.037 22.0782 206.336C22.5729 206.625 22.9556 207.036 23.2262 207.568C23.4969 208.1 23.6322 208.716 23.6322 209.416V209.962H18.2422ZM22.4002 208.884C22.3629 208.389 22.1622 207.96 21.7982 207.596C21.4436 207.223 20.9722 207.036 20.3842 207.036C19.7962 207.036 19.3156 207.213 18.9422 207.568C18.5689 207.923 18.3402 208.361 18.2562 208.884H22.4002ZM31.1324 213.196C30.6564 213.196 30.2364 213.107 29.8724 212.93C29.5084 212.743 29.2284 212.491 29.0324 212.174C28.8364 211.847 28.7384 211.483 28.7384 211.082C28.7384 210.485 28.9437 209.995 29.3544 209.612C29.7744 209.22 30.4697 208.954 31.4404 208.814L33.1064 208.576V208.422C33.1064 207.479 32.6117 207.008 31.6224 207.008C31.1464 207.008 30.7824 207.12 30.5304 207.344C30.2877 207.559 30.1337 207.867 30.0684 208.268L28.8504 207.974C29.1864 206.583 30.1197 205.888 31.6504 205.888C32.4997 205.888 33.1811 206.103 33.6944 206.532C34.2171 206.961 34.4784 207.587 34.4784 208.408V213H33.3164L33.1764 212.328C32.7564 212.907 32.0751 213.196 31.1324 213.196ZM31.4684 212.062C31.9257 212.062 32.3131 211.931 32.6304 211.67C32.9477 211.409 33.1064 211.031 33.1064 210.536V209.626L31.5524 209.864C31.0577 209.939 30.6844 210.065 30.4324 210.242C30.1897 210.41 30.0684 210.667 30.0684 211.012C30.0684 211.329 30.1944 211.586 30.4464 211.782C30.6984 211.969 31.0391 212.062 31.4684 212.062ZM36.1561 203.2H37.5281V213H36.1561V203.2ZM39.3416 203.2H40.7136V213H39.3416V203.2ZM53.068 213L57.5225 208.545L53.068 204.091L52.3024 204.857L55.4544 207.999H47.291V209.092H55.4544L52.3024 212.244L53.068 213Z" fill="#0B7FFD"/>
</svg>
