<svg width="250" height="162" viewBox="0 0 250 162" fill="none" xmlns="http://www.w3.org/2000/svg">
<path d="M7.36621 150.464V120.677L14.8988 115.992L17.7445 119.673L22.3477 125.614L33.563 119.171L48.963 135.068L58.4206 130.55H74.3227L83.9477 123.187L106.797 122.35L112.237 118.167L120.858 110.553L139.94 97.7514L148.059 102.186L164.379 92.8148L175.929 108.712L191.999 108.127V113.565L205.725 112.728L218.614 101.851L223.217 112.226V120.677L245.062 133.228V150.715L7.36621 150.464Z" fill="#EBA7A2"/>
<path d="M7.36621 157.994V132.056L14.8988 128.04L17.7445 131.303L22.3477 136.407L33.563 130.801L48.963 144.607L58.4206 140.674H74.3227L83.9477 134.315L106.797 133.562L112.237 129.964L120.858 123.271L139.94 112.143L148.059 115.991L164.379 107.875L175.929 121.765L191.999 121.179V125.865L205.725 125.195L218.614 115.74L223.217 124.777V132.056L245.062 143.017V158.245L7.36621 157.994Z" fill="#8CC9FE"/>
<g opacity="0.75">
<path opacity="0.75" d="M244.811 155.986H0.670654V161.759H244.811V155.986Z" fill="#A7B0B8"/>
</g>
<path d="M244.978 89.468L210.663 71.3115H210.579L154.838 89.0497L110.982 131.387H110.898L85.9566 141.846H85.8729L45.699 123.94L7.53376 145.36L7.19897 144.858L45.6153 123.187L45.7827 123.271L85.9566 141.176L110.563 130.801L154.503 88.464H154.587L210.245 70.7259L244.56 88.8823H244.727" fill="#599ECC"/>
<path d="M46.0336 4.20786H45.364V156.237H46.0336V4.20786Z" fill="#B9DEFD"/>
<path d="M86.2914 0.0243835H85.6218V156.823H86.2914V0.0243835Z" fill="#B9DEFD"/>
<path d="M111.065 0.0243835H110.396V156.823H111.065V0.0243835Z" fill="#B9DEFD"/>
<path d="M155.005 0.0243835H154.336V156.823H155.005V0.0243835Z" fill="#B9DEFD"/>
<path d="M210.83 0.0243835H210.161V156.823H210.83V0.0243835Z" fill="#B9DEFD"/>
<path d="M245.146 0.0243835H244.476V156.823H245.146V0.0243835Z" fill="#B9DEFD"/>
<path d="M8.62171 4.20786H7.95215V156.237H8.62171V4.20786Z" fill="#B9DEFD"/>
<path d="M244.811 123.187H7.36621V123.773H244.811V123.187Z" fill="#FFA25F"/>
<path d="M244.811 88.4639H7.36621V89.1333H244.811V88.4639Z" fill="#B9DEFD"/>
<path d="M244.811 70.7259H7.36621V71.3952H244.811V70.7259Z" fill="#B9DEFD"/>
<path d="M244.811 17.1768H7.36621V17.8462H244.811V17.1768Z" fill="#B9DEFD"/>
<path d="M244.811 130.801H7.36621V131.303H244.811V130.801Z" fill="#FFA25F"/>
<path d="M244.811 141.176H7.36621V141.846H244.811V141.176Z" fill="#B9DEFD"/>
<path d="M91.2293 141.511C91.2293 144.356 88.8859 146.698 86.0402 146.698C83.1109 146.698 80.8511 144.356 80.8511 141.511C80.8511 138.666 83.1946 136.323 86.0402 136.323C88.8859 136.323 91.2293 138.666 91.2293 141.511Z" fill="#FFE6C7"/>
<path d="M116.003 131.136C116.003 133.981 113.66 136.323 110.814 136.323C107.885 136.323 105.625 133.981 105.625 131.136C105.625 128.291 107.968 125.948 110.814 125.948C113.66 125.948 116.003 128.207 116.003 131.136Z" fill="#FFE6C7"/>
<path d="M159.86 88.7986C159.86 91.6434 157.516 93.9862 154.671 93.9862C151.741 93.9862 149.481 91.6434 149.481 88.7986C149.481 85.9538 151.825 83.6111 154.671 83.6111C157.516 83.5274 159.86 85.8702 159.86 88.7986Z" fill="#FFE6C7"/>
<path d="M215.685 71.0604C215.685 73.9052 213.341 76.248 210.496 76.248C207.566 76.248 205.307 73.9052 205.307 71.0604C205.307 68.2156 207.65 65.8729 210.496 65.8729C213.341 65.7892 215.685 68.132 215.685 71.0604Z" fill="#FFE6C7"/>
<path d="M250 90.8066C250 93.6514 247.657 95.9942 244.811 95.9942C241.882 95.9942 239.622 93.6514 239.622 90.8066C239.622 87.9618 241.965 85.619 244.811 85.619C247.657 85.619 250 87.9618 250 90.8066Z" fill="#FFE6C7"/>
<path d="M51.8086 121.095C51.8086 124.358 49.1303 127.036 45.8662 127.036C42.6021 127.036 39.9238 124.358 39.9238 121.095C39.9238 117.832 42.6021 115.155 45.8662 115.155C49.214 115.155 51.8086 117.832 51.8086 121.095Z" fill="#FFE6C7"/>
<path d="M27.2022 127.789C24.4402 127.789 22.2642 125.53 22.2642 122.852V97.3329C22.2642 94.5718 24.5239 92.3964 27.2022 92.3964C29.9642 92.3964 32.1402 94.6555 32.1402 97.3329V122.852C32.1402 125.53 29.9642 127.789 27.2022 127.789Z" fill="#4CCEB9"/>
<path d="M45.4478 108.043C42.6859 108.043 40.5098 105.784 40.5098 103.106V83.36C40.5098 80.5988 42.7695 78.4234 45.4478 78.4234C48.2098 78.4234 50.3859 80.6825 50.3859 83.36V103.106C50.3859 105.784 48.1261 108.043 45.4478 108.043Z" fill="#4CCEB9"/>
<path d="M62.7728 121.179C60.0108 121.179 57.8347 118.92 57.8347 116.242V98.1696C57.8347 95.4085 60.0945 93.2331 62.7728 93.2331C65.5347 93.2331 67.7108 95.4922 67.7108 98.1696V116.242C67.7108 119.004 65.5347 121.179 62.7728 121.179Z" fill="#DE645F"/>
<path d="M81.0186 129.462C78.2567 129.462 76.0806 127.203 76.0806 124.526V99.0064C76.0806 96.2452 78.3404 94.0698 81.0186 94.0698C83.7806 94.0698 85.9566 96.3289 85.9566 99.0064V124.526C85.9566 127.203 83.6969 129.462 81.0186 129.462Z" fill="#DE645F"/>
<path d="M99.1805 113.816C96.4185 113.816 94.2424 111.557 94.2424 108.879V83.36C94.2424 80.5988 96.5022 78.4234 99.1805 78.4234C101.942 78.4234 104.119 80.6825 104.119 83.36V108.879C104.119 111.557 101.942 113.816 99.1805 113.816Z" fill="#4CCEB9"/>
<path d="M119.016 97.333C116.254 97.333 114.078 95.0739 114.078 92.3964V66.877C114.078 64.1158 116.338 61.9404 119.016 61.9404C121.778 61.9404 123.954 64.1995 123.954 66.877V92.3964C123.954 95.0739 121.778 97.333 119.016 97.333Z" fill="#4CCEB9"/>
<path d="M138.852 83.3599C136.09 83.3599 133.914 81.1008 133.914 78.4234V52.8202C133.914 50.0591 136.174 47.8837 138.852 47.8837C141.614 47.8837 143.79 50.1428 143.79 52.8202V78.3397C143.874 81.1008 141.614 83.3599 138.852 83.3599Z" fill="#4CCEB9"/>
<path d="M186.056 73.4032C183.294 73.4032 181.035 71.1441 181.035 68.4666C181.035 65.7892 183.294 63.5301 185.973 63.5301C188.651 63.5301 190.911 65.7892 190.911 68.4666C190.994 71.2277 188.735 73.4032 186.056 73.4032Z" fill="#4CCEB9"/>
<path d="M209.659 62.6934H206.98C204.972 62.6934 203.298 61.02 203.298 59.0119V39.182C203.298 37.1739 204.972 35.5005 206.98 35.5005H209.659C211.667 35.5005 213.341 37.1739 213.341 39.182V59.0956C213.341 61.1037 211.667 62.6934 209.659 62.6934Z" fill="#4CCEB9"/>
<path d="M229.076 75.9133C226.314 75.9133 224.138 73.6542 224.138 70.9768V56.1671C224.138 53.406 226.398 51.2306 229.076 51.2306C231.838 51.2306 234.014 53.4897 234.014 56.1671V70.9768C234.014 73.6542 231.754 75.9133 229.076 75.9133Z" fill="#DE645F"/>
<path d="M162.873 80.0132C160.111 80.0132 157.935 77.7541 157.935 75.0767V66.877C157.935 64.1158 160.195 61.9404 162.873 61.9404C165.635 61.9404 167.811 64.1995 167.811 66.877V75.0767C167.811 77.8378 165.635 80.0132 162.873 80.0132Z" fill="#4CCEB9"/>
</svg>
