<svg width="375" height="165" viewBox="0 0 375 165" fill="none" xmlns="http://www.w3.org/2000/svg">
<path d="M0.126083 94.8713L7.93616 94.8789C8.96468 94.8799 9.98021 95.1075 10.9105 95.5456L17.4491 98.6248C18.3845 99.0653 19.4061 99.293 20.4404 99.2915L26.9937 99.2819C27.8191 99.2807 28.6381 99.4255 29.4129 99.7096L32.7638 100.938C35.6468 101.995 38.8832 101.049 40.7448 98.6053L44.931 93.1092C46.2256 91.4096 48.2384 90.4105 50.3743 90.4074V90.4074C53.8014 90.4024 56.7033 92.9306 57.1675 96.3258L65.1586 154.764C65.5095 157.331 67.2491 159.492 69.6806 160.384L74.4643 162.138C74.8876 162.293 75.3249 162.407 75.7702 162.478L80.4586 163.226C82.9405 163.622 85.445 162.657 87.0204 160.698L88.9314 158.321C91.5201 155.101 96.3633 154.93 99.1687 157.959V157.959C101.482 160.458 105.294 160.846 108.066 158.864L110.766 156.935C111.951 156.088 113.371 155.631 114.827 155.629L120.713 155.62C121.538 155.619 122.356 155.472 123.13 155.186L128.914 153.049C130.475 152.472 132.189 152.469 133.751 153.042L134.644 153.37C138.067 154.625 141.882 153.041 143.412 149.73L148.199 139.37C149.343 136.894 151.821 135.307 154.547 135.303L159.447 135.296L167.286 135.284C168.296 135.283 169.294 135.063 170.211 134.639L174.676 132.578C176.863 131.569 178.378 129.506 178.687 127.117L186.774 64.5909C187.225 61.103 190.194 58.4896 193.711 58.4844L194.411 58.4834C196.042 58.481 197.623 59.0484 198.879 60.0874L204.362 64.6207C205.619 65.6598 207.199 66.2271 208.83 66.2248L214.286 66.2168C215.205 66.2155 216.116 66.3952 216.965 66.7459L221.088 68.4473C223.52 69.4507 226.309 69.0057 228.309 67.2954L233.58 62.7884C234.138 62.3115 234.767 61.9252 235.445 61.6436L240.431 59.5714C242.539 58.6954 244.088 56.847 244.582 54.6186L251.951 21.3792C252.661 18.1765 255.499 15.8949 258.779 15.8901L260.341 15.8879C261.771 15.8858 263.166 15.4458 264.339 14.627L270.108 10.6006C271.281 9.78187 272.676 9.34186 274.106 9.33977L279.476 9.33194C280.66 9.33021 281.825 9.6288 282.862 10.1998L289.073 13.6201C290.109 14.1911 291.274 14.4896 292.458 14.4879L298.778 14.4787C299.603 14.4775 300.421 14.3305 301.195 14.0445L308.227 11.4457C309.001 11.1597 309.819 11.0127 310.644 11.0115L318.769 10.9996L328.141 10.9859L337.512 10.9723L343.87 10.963C345.794 10.9602 347.633 10.1654 348.954 8.76538L354.187 3.21962C355.508 1.81961 357.346 1.02479 359.271 1.02198L365.628 1.01271L375 1.0602" stroke="#F7931A" stroke-width="2"/>
</svg>
