<svg width="16" height="18" viewBox="0 0 16 18" fill="none" xmlns="http://www.w3.org/2000/svg">
<path fill-rule="evenodd" clip-rule="evenodd" d="M0.454102 16.7267C0.454102 16.434 0.570396 16.1532 0.7774 15.9462C0.984405 15.7392 1.26516 15.6229 1.55791 15.6229H14.8037C15.0964 15.6229 15.3772 15.7392 15.5842 15.9462C15.7912 16.1532 15.9075 16.434 15.9075 16.7267C15.9075 17.0195 15.7912 17.3002 15.5842 17.5072C15.3772 17.7142 15.0964 17.8305 14.8037 17.8305H1.55791C1.26516 17.8305 0.984405 17.7142 0.7774 17.5072C0.570396 17.3002 0.454102 17.0195 0.454102 16.7267ZM4.08895 5.3652C3.88202 5.1582 3.76577 4.87749 3.76577 4.5848C3.76577 4.29211 3.88202 4.0114 4.08895 3.80441L7.40039 0.492973C7.60738 0.28604 7.88809 0.169792 8.18078 0.169792C8.47347 0.169792 8.75418 0.28604 8.96118 0.492973L12.2726 3.80441C12.4737 4.01259 12.5849 4.29141 12.5824 4.58083C12.5799 4.87025 12.4638 5.14709 12.2592 5.35175C12.0545 5.55641 11.7777 5.67249 11.4882 5.67501C11.1988 5.67752 10.92 5.56626 10.7118 5.3652L9.28459 3.93797V12.3115C9.28459 12.6042 9.1683 12.885 8.96129 13.092C8.75429 13.299 8.47353 13.4153 8.18078 13.4153C7.88803 13.4153 7.60727 13.299 7.40027 13.092C7.19326 12.885 7.07697 12.6042 7.07697 12.3115V3.93797L5.64974 5.3652C5.44275 5.57213 5.16204 5.68838 4.86935 5.68838C4.57666 5.68838 4.29595 5.57213 4.08895 5.3652V5.3652Z" fill="currentColor"/>
</svg>
